<mxfile host="Electron" agent="Mozilla/5.0 (Windows NT 10.0; Win64; x64) AppleWebKit/537.36 (KHTML, like Gecko) draw.io/26.0.16 Chrome/132.0.6834.196 Electron/34.2.0 Safari/537.36" version="26.0.16">
  <diagram name="Page-1" id="hWWAHxLfRdTMdFzswVTN">
    <mxGraphModel dx="2462" dy="997" grid="1" gridSize="10" guides="1" tooltips="1" connect="1" arrows="1" fold="1" page="1" pageScale="1" pageWidth="850" pageHeight="1100" math="0" shadow="0">
      <root>
        <mxCell id="0" />
        <mxCell id="1" parent="0" />
        <mxCell id="cGruJ02C7jI4yUieoDy_-39" value="" style="ellipse;whiteSpace=wrap;html=1;aspect=fixed;fillColor=none;fontFamily=Cascadia Code;fontSize=9;" vertex="1" parent="1">
          <mxGeometry x="254.73999999999998" y="145.89999999999998" width="408.21" height="408.21" as="geometry" />
        </mxCell>
        <mxCell id="cGruJ02C7jI4yUieoDy_-1" value="&lt;div&gt;&lt;br&gt;&lt;/div&gt;&lt;div&gt;&lt;br&gt;&lt;/div&gt;" style="shape=umlActor;verticalLabelPosition=bottom;verticalAlign=top;html=1;outlineConnect=0;fontFamily=Cascadia Code;fontSize=9;fillColor=none;" vertex="1" parent="1">
          <mxGeometry x="128.84" y="297.15999999999997" width="20" height="40" as="geometry" />
        </mxCell>
        <mxCell id="cGruJ02C7jI4yUieoDy_-2" value="" style="shape=hexagon;perimeter=hexagonPerimeter2;whiteSpace=wrap;html=1;fixedSize=1;size=30;fontFamily=Cascadia Code;fontSize=9;fillColor=none;" vertex="1" parent="1">
          <mxGeometry x="398.84" y="290" width="120" height="120" as="geometry" />
        </mxCell>
        <mxCell id="cGruJ02C7jI4yUieoDy_-3" value="Healer&lt;div&gt;2&lt;/div&gt;" style="ellipse;whiteSpace=wrap;html=1;aspect=fixed;fontFamily=Cascadia Code;fontSize=9;fillColor=none;" vertex="1" parent="1">
          <mxGeometry x="433.84" y="440" width="50" height="50" as="geometry" />
        </mxCell>
        <mxCell id="cGruJ02C7jI4yUieoDy_-4" value="Healer&lt;div&gt;1&lt;/div&gt;" style="ellipse;whiteSpace=wrap;html=1;aspect=fixed;fontFamily=Cascadia Code;fontSize=9;fillColor=none;" vertex="1" parent="1">
          <mxGeometry x="433.84" y="210" width="50" height="50" as="geometry" />
        </mxCell>
        <mxCell id="cGruJ02C7jI4yUieoDy_-5" value="" style="rounded=0;whiteSpace=wrap;html=1;fontFamily=Cascadia Code;fontSize=9;fillColor=none;" vertex="1" parent="1">
          <mxGeometry x="428.84" y="270" width="60" height="10" as="geometry" />
        </mxCell>
        <mxCell id="cGruJ02C7jI4yUieoDy_-6" value="" style="rounded=0;whiteSpace=wrap;html=1;fontFamily=Cascadia Code;fontSize=9;fillColor=none;" vertex="1" parent="1">
          <mxGeometry x="428.84" y="420" width="60" height="10" as="geometry" />
        </mxCell>
        <mxCell id="cGruJ02C7jI4yUieoDy_-8" value="" style="rounded=0;whiteSpace=wrap;html=1;rotation=-60;fontFamily=Cascadia Code;fontSize=9;fillColor=none;" vertex="1" parent="1">
          <mxGeometry x="488.84" y="380" width="60" height="10" as="geometry" />
        </mxCell>
        <mxCell id="cGruJ02C7jI4yUieoDy_-9" value="" style="rounded=0;whiteSpace=wrap;html=1;rotation=-120;fontFamily=Cascadia Code;fontSize=9;fillColor=none;" vertex="1" parent="1">
          <mxGeometry x="488.84" y="310" width="60" height="10" as="geometry" />
        </mxCell>
        <mxCell id="cGruJ02C7jI4yUieoDy_-11" value="" style="rounded=0;whiteSpace=wrap;html=1;rotation=-240;fontFamily=Cascadia Code;fontSize=9;fillColor=none;" vertex="1" parent="1">
          <mxGeometry x="368.84" y="310" width="60" height="10" as="geometry" />
        </mxCell>
        <mxCell id="cGruJ02C7jI4yUieoDy_-12" value="" style="rounded=0;whiteSpace=wrap;html=1;rotation=-120;fontFamily=Cascadia Code;fontSize=9;fillColor=none;" vertex="1" parent="1">
          <mxGeometry x="368.84" y="380" width="60" height="10" as="geometry" />
        </mxCell>
        <mxCell id="cGruJ02C7jI4yUieoDy_-13" value="Damage&lt;div&gt;1&lt;/div&gt;" style="ellipse;whiteSpace=wrap;html=1;aspect=fixed;fontFamily=Cascadia Code;fontSize=9;fillColor=none;" vertex="1" parent="1">
          <mxGeometry x="338.84" y="270" width="50" height="50" as="geometry" />
        </mxCell>
        <mxCell id="cGruJ02C7jI4yUieoDy_-14" value="Damage&lt;div&gt;2&lt;/div&gt;" style="ellipse;whiteSpace=wrap;html=1;aspect=fixed;fontFamily=Cascadia Code;fontSize=9;fillColor=none;" vertex="1" parent="1">
          <mxGeometry x="338.84" y="380" width="50" height="50" as="geometry" />
        </mxCell>
        <mxCell id="cGruJ02C7jI4yUieoDy_-15" value="Damage&lt;div&gt;3&lt;/div&gt;" style="ellipse;whiteSpace=wrap;html=1;aspect=fixed;fontFamily=Cascadia Code;fontSize=9;fillColor=none;" vertex="1" parent="1">
          <mxGeometry x="528.84" y="270" width="50" height="50" as="geometry" />
        </mxCell>
        <mxCell id="cGruJ02C7jI4yUieoDy_-16" value="Damage&lt;div&gt;4&lt;/div&gt;" style="ellipse;whiteSpace=wrap;html=1;aspect=fixed;fontFamily=Cascadia Code;fontSize=9;fillColor=none;" vertex="1" parent="1">
          <mxGeometry x="533.84" y="380" width="50" height="50" as="geometry" />
        </mxCell>
        <mxCell id="cGruJ02C7jI4yUieoDy_-17" value="" style="endArrow=none;html=1;rounded=0;fontFamily=Cascadia Code;fontSize=9;" edge="1" parent="1">
          <mxGeometry width="50" height="50" relative="1" as="geometry">
            <mxPoint x="18.84" y="272.15999999999997" as="sourcePoint" />
            <mxPoint x="158.84" y="272.15999999999997" as="targetPoint" />
          </mxGeometry>
        </mxCell>
        <mxCell id="cGruJ02C7jI4yUieoDy_-18" value="" style="endArrow=none;html=1;rounded=0;fontFamily=Cascadia Code;fontSize=9;" edge="1" parent="1">
          <mxGeometry width="50" height="50" relative="1" as="geometry">
            <mxPoint x="18.84" y="352.15999999999997" as="sourcePoint" />
            <mxPoint x="158.84" y="352.15999999999997" as="targetPoint" />
          </mxGeometry>
        </mxCell>
        <mxCell id="cGruJ02C7jI4yUieoDy_-19" value="&lt;div&gt;&lt;br&gt;&lt;/div&gt;&lt;div&gt;&lt;br&gt;&lt;/div&gt;" style="shape=umlActor;verticalLabelPosition=bottom;verticalAlign=top;html=1;outlineConnect=0;fontFamily=Cascadia Code;fontSize=9;fillColor=none;" vertex="1" parent="1">
          <mxGeometry x="98.84" y="297.15999999999997" width="20" height="40" as="geometry" />
        </mxCell>
        <mxCell id="cGruJ02C7jI4yUieoDy_-20" value="&lt;div&gt;&lt;br&gt;&lt;/div&gt;&lt;div&gt;&lt;br&gt;&lt;/div&gt;" style="shape=umlActor;verticalLabelPosition=bottom;verticalAlign=top;html=1;outlineConnect=0;fontFamily=Cascadia Code;fontSize=9;fillColor=none;" vertex="1" parent="1">
          <mxGeometry x="38.84" y="297.15999999999997" width="20" height="40" as="geometry" />
        </mxCell>
        <mxCell id="cGruJ02C7jI4yUieoDy_-24" value="" style="endArrow=none;dashed=1;html=1;dashPattern=1 3;strokeWidth=2;rounded=0;fontFamily=Cascadia Code;fontSize=9;" edge="1" parent="1">
          <mxGeometry width="50" height="50" relative="1" as="geometry">
            <mxPoint x="58.84" y="316.82000000000005" as="sourcePoint" />
            <mxPoint x="98.84" y="316.82000000000005" as="targetPoint" />
          </mxGeometry>
        </mxCell>
        <mxCell id="cGruJ02C7jI4yUieoDy_-25" value="Damage Queue" style="text;html=1;align=center;verticalAlign=middle;resizable=0;points=[];autosize=1;strokeColor=none;fillColor=none;fontFamily=Cascadia Code;fontSize=9;" vertex="1" parent="1">
          <mxGeometry x="48.84" y="272.15999999999997" width="90" height="20" as="geometry" />
        </mxCell>
        <mxCell id="cGruJ02C7jI4yUieoDy_-26" value="Healer Queue" style="text;html=1;align=center;verticalAlign=middle;resizable=0;points=[];autosize=1;strokeColor=none;fillColor=none;fontFamily=Cascadia Code;fontSize=9;" vertex="1" parent="1">
          <mxGeometry x="48.84" y="352.15999999999997" width="90" height="20" as="geometry" />
        </mxCell>
        <mxCell id="cGruJ02C7jI4yUieoDy_-27" value="&lt;div&gt;&lt;br&gt;&lt;/div&gt;&lt;div&gt;&lt;br&gt;&lt;/div&gt;" style="shape=umlActor;verticalLabelPosition=bottom;verticalAlign=top;html=1;outlineConnect=0;fontFamily=Cascadia Code;fontSize=9;fillColor=none;" vertex="1" parent="1">
          <mxGeometry x="128.84" y="372.15999999999997" width="20" height="40" as="geometry" />
        </mxCell>
        <mxCell id="cGruJ02C7jI4yUieoDy_-28" value="&lt;div&gt;&lt;br&gt;&lt;/div&gt;&lt;div&gt;&lt;br&gt;&lt;/div&gt;" style="shape=umlActor;verticalLabelPosition=bottom;verticalAlign=top;html=1;outlineConnect=0;fontFamily=Cascadia Code;fontSize=9;fillColor=none;" vertex="1" parent="1">
          <mxGeometry x="98.84" y="372.15999999999997" width="20" height="40" as="geometry" />
        </mxCell>
        <mxCell id="cGruJ02C7jI4yUieoDy_-29" value="&lt;div&gt;&lt;br&gt;&lt;/div&gt;&lt;div&gt;&lt;br&gt;&lt;/div&gt;" style="shape=umlActor;verticalLabelPosition=bottom;verticalAlign=top;html=1;outlineConnect=0;fontFamily=Cascadia Code;fontSize=9;fillColor=none;" vertex="1" parent="1">
          <mxGeometry x="38.84" y="372.15999999999997" width="20" height="40" as="geometry" />
        </mxCell>
        <mxCell id="cGruJ02C7jI4yUieoDy_-30" value="" style="endArrow=none;dashed=1;html=1;dashPattern=1 3;strokeWidth=2;rounded=0;fontFamily=Cascadia Code;fontSize=9;" edge="1" parent="1">
          <mxGeometry width="50" height="50" relative="1" as="geometry">
            <mxPoint x="58.84" y="391.82000000000005" as="sourcePoint" />
            <mxPoint x="98.84" y="391.82000000000005" as="targetPoint" />
          </mxGeometry>
        </mxCell>
        <mxCell id="cGruJ02C7jI4yUieoDy_-31" value="" style="endArrow=none;html=1;rounded=0;fontFamily=Cascadia Code;fontSize=9;" edge="1" parent="1">
          <mxGeometry width="50" height="50" relative="1" as="geometry">
            <mxPoint x="18.84" y="432.15999999999997" as="sourcePoint" />
            <mxPoint x="158.84" y="432.15999999999997" as="targetPoint" />
          </mxGeometry>
        </mxCell>
        <mxCell id="cGruJ02C7jI4yUieoDy_-32" value="Specialization&lt;div&gt;Selection&lt;/div&gt;&lt;div&gt;Kiosk&lt;/div&gt;" style="whiteSpace=wrap;html=1;aspect=fixed;fontFamily=Cascadia Code;fontSize=9;fillColor=none;" vertex="1" parent="1">
          <mxGeometry x="168.84" y="272.15999999999997" width="80" height="80" as="geometry" />
        </mxCell>
        <mxCell id="cGruJ02C7jI4yUieoDy_-33" value="Specialization&lt;div&gt;Selection&lt;/div&gt;&lt;div&gt;Kiosk&lt;/div&gt;" style="whiteSpace=wrap;html=1;aspect=fixed;fontFamily=Cascadia Code;fontSize=9;fillColor=none;" vertex="1" parent="1">
          <mxGeometry x="168.84" y="352.15999999999997" width="80" height="80" as="geometry" />
        </mxCell>
        <mxCell id="cGruJ02C7jI4yUieoDy_-34" value="" style="shape=flexArrow;endArrow=classic;html=1;rounded=0;fontFamily=Cascadia Code;fontSize=9;" edge="1" parent="1">
          <mxGeometry width="50" height="50" relative="1" as="geometry">
            <mxPoint x="268.84" y="352.15999999999997" as="sourcePoint" />
            <mxPoint x="328.84" y="352.15999999999997" as="targetPoint" />
          </mxGeometry>
        </mxCell>
        <mxCell id="cGruJ02C7jI4yUieoDy_-35" value="" style="shape=flexArrow;endArrow=classic;html=1;rounded=0;fontFamily=Cascadia Code;fontSize=9;" edge="1" parent="1">
          <mxGeometry width="50" height="50" relative="1" as="geometry">
            <mxPoint x="583.84" y="371.46999999999997" as="sourcePoint" />
            <mxPoint x="643.84" y="371.46999999999997" as="targetPoint" />
          </mxGeometry>
        </mxCell>
        <mxCell id="cGruJ02C7jI4yUieoDy_-36" value="Players Exit&lt;div&gt;Exhibit After Match&lt;/div&gt;" style="text;html=1;align=center;verticalAlign=middle;resizable=0;points=[];autosize=1;strokeColor=none;fillColor=none;fontFamily=Cascadia Code;fontSize=9;" vertex="1" parent="1">
          <mxGeometry x="542.95" y="312.15999999999997" width="120" height="40" as="geometry" />
        </mxCell>
        <mxCell id="cGruJ02C7jI4yUieoDy_-37" value="Dalaran&lt;div&gt;Sewers&lt;/div&gt;&lt;div&gt;Water&lt;/div&gt;&lt;div&gt;Feature&lt;/div&gt;" style="ellipse;whiteSpace=wrap;html=1;aspect=fixed;fontFamily=Cascadia Code;fontSize=9;fillColor=none;" vertex="1" parent="1">
          <mxGeometry x="418.84" y="310" width="80" height="80" as="geometry" />
        </mxCell>
        <mxCell id="cGruJ02C7jI4yUieoDy_-38" value="Players Take Seats&lt;div&gt;When Match&lt;/div&gt;&lt;div&gt;Countdown Begins&lt;/div&gt;" style="text;html=1;align=center;verticalAlign=middle;resizable=0;points=[];autosize=1;strokeColor=none;fillColor=none;fontFamily=Cascadia Code;fontSize=9;" vertex="1" parent="1">
          <mxGeometry x="163.84" y="212.15999999999997" width="120" height="50" as="geometry" />
        </mxCell>
        <mxCell id="cGruJ02C7jI4yUieoDy_-40" value="Exhibit Partially Enclosed&lt;div&gt;Separating Players and Spectators&lt;/div&gt;" style="text;html=1;align=center;verticalAlign=middle;resizable=0;points=[];autosize=1;strokeColor=none;fillColor=none;fontFamily=Cascadia Code;fontSize=9;" vertex="1" parent="1">
          <mxGeometry x="403.84" y="554.11" width="200" height="40" as="geometry" />
        </mxCell>
        <mxCell id="cGruJ02C7jI4yUieoDy_-42" value="" style="rounded=0;whiteSpace=wrap;html=1;rotation=48;fontFamily=Cascadia Code;fontSize=9;fillColor=none;" vertex="1" parent="1">
          <mxGeometry x="193.84" y="480" width="135" height="90" as="geometry" />
        </mxCell>
        <mxCell id="cGruJ02C7jI4yUieoDy_-43" value="Match Commentary&lt;div&gt;and Broadcasting Booth&lt;/div&gt;" style="text;html=1;align=center;verticalAlign=middle;resizable=0;points=[];autosize=1;strokeColor=none;fillColor=none;fontFamily=Cascadia Code;fontSize=9;" vertex="1" parent="1">
          <mxGeometry x="68.84" y="514.11" width="140" height="40" as="geometry" />
        </mxCell>
        <mxCell id="cGruJ02C7jI4yUieoDy_-44" value="" style="rounded=0;whiteSpace=wrap;html=1;rotation=-45;fontFamily=Cascadia Code;fontSize=9;fillColor=none;" vertex="1" parent="1">
          <mxGeometry x="254.73999999999998" y="150" width="125" height="20" as="geometry" />
        </mxCell>
        <mxCell id="cGruJ02C7jI4yUieoDy_-45" value="" style="rounded=0;whiteSpace=wrap;html=1;rotation=45;fontFamily=Cascadia Code;fontSize=9;fillColor=none;" vertex="1" parent="1">
          <mxGeometry x="568.84" y="180" width="125" height="20" as="geometry" />
        </mxCell>
        <mxCell id="cGruJ02C7jI4yUieoDy_-46" value="Screens Transmitting Match-Broadcast&lt;div&gt;Audio and Video to Additional Spectators&lt;/div&gt;" style="text;html=1;align=center;verticalAlign=middle;resizable=0;points=[];autosize=1;strokeColor=none;fillColor=none;fontFamily=Cascadia Code;fontSize=9;" vertex="1" parent="1">
          <mxGeometry x="373.84" y="100.00000000000001" width="230" height="40" as="geometry" />
        </mxCell>
        <mxCell id="cGruJ02C7jI4yUieoDy_-47" value="&lt;div&gt;&lt;br&gt;&lt;/div&gt;&lt;div&gt;&lt;br&gt;&lt;/div&gt;" style="shape=umlActor;verticalLabelPosition=bottom;verticalAlign=top;html=1;outlineConnect=0;fontFamily=Cascadia Code;fontSize=9;fillColor=none;" vertex="1" parent="1">
          <mxGeometry x="248.84" y="130" width="20" height="40" as="geometry" />
        </mxCell>
        <mxCell id="cGruJ02C7jI4yUieoDy_-48" value="&lt;div&gt;&lt;br&gt;&lt;/div&gt;&lt;div&gt;&lt;br&gt;&lt;/div&gt;" style="shape=umlActor;verticalLabelPosition=bottom;verticalAlign=top;html=1;outlineConnect=0;fontFamily=Cascadia Code;fontSize=9;fillColor=none;" vertex="1" parent="1">
          <mxGeometry x="288.84" y="105.90000000000002" width="20" height="40" as="geometry" />
        </mxCell>
        <mxCell id="cGruJ02C7jI4yUieoDy_-49" value="&lt;div&gt;&lt;br&gt;&lt;/div&gt;&lt;div&gt;&lt;br&gt;&lt;/div&gt;" style="shape=umlActor;verticalLabelPosition=bottom;verticalAlign=top;html=1;outlineConnect=0;fontFamily=Cascadia Code;fontSize=9;fillColor=none;" vertex="1" parent="1">
          <mxGeometry x="628.84" y="115.90000000000002" width="20" height="40" as="geometry" />
        </mxCell>
        <mxCell id="cGruJ02C7jI4yUieoDy_-50" value="&lt;div&gt;&lt;br&gt;&lt;/div&gt;&lt;div&gt;&lt;br&gt;&lt;/div&gt;" style="shape=umlActor;verticalLabelPosition=bottom;verticalAlign=top;html=1;outlineConnect=0;fontFamily=Cascadia Code;fontSize=9;fillColor=none;" vertex="1" parent="1">
          <mxGeometry x="662.95" y="145.89999999999998" width="20" height="40" as="geometry" />
        </mxCell>
        <mxCell id="cGruJ02C7jI4yUieoDy_-51" value="Players Play Full&lt;div&gt;Solo Shuffle War Game&lt;/div&gt;" style="text;html=1;align=center;verticalAlign=middle;resizable=0;points=[];autosize=1;strokeColor=none;fillColor=none;fontFamily=Cascadia Code;fontSize=9;" vertex="1" parent="1">
          <mxGeometry x="388.84" y="160" width="130" height="40" as="geometry" />
        </mxCell>
        <mxCell id="cGruJ02C7jI4yUieoDy_-52" value="Station Placards Provide Key Binding&lt;div&gt;and Control Visual Aids&lt;/div&gt;" style="text;html=1;align=center;verticalAlign=middle;resizable=0;points=[];autosize=1;strokeColor=none;fillColor=none;fontFamily=Cascadia Code;fontSize=9;" vertex="1" parent="1">
          <mxGeometry x="348.84" y="490" width="210" height="40" as="geometry" />
        </mxCell>
        <mxCell id="cGruJ02C7jI4yUieoDy_-53" value="All Stations Use&lt;div&gt;USB GamePad&lt;/div&gt;" style="text;html=1;align=center;verticalAlign=middle;resizable=0;points=[];autosize=1;strokeColor=none;fillColor=none;fontFamily=Cascadia Code;fontSize=9;" vertex="1" parent="1">
          <mxGeometry x="303.84" y="217.16000000000003" width="110" height="40" as="geometry" />
        </mxCell>
        <mxCell id="cGruJ02C7jI4yUieoDy_-54" value="Key Binding and Control&lt;div&gt;Visual Aids&lt;/div&gt;" style="rounded=0;whiteSpace=wrap;html=1;fontFamily=Cascadia Code;fontSize=9;fillColor=none;" vertex="1" parent="1">
          <mxGeometry x="8.84" y="215" width="155" height="40" as="geometry" />
        </mxCell>
        <mxCell id="cGruJ02C7jI4yUieoDy_-55" value="Key Binding and Control&lt;div&gt;Visual Aids&lt;/div&gt;" style="rounded=0;whiteSpace=wrap;html=1;fontFamily=Cascadia Code;fontSize=9;fillColor=none;" vertex="1" parent="1">
          <mxGeometry x="8.84" y="445" width="155" height="40" as="geometry" />
        </mxCell>
        <mxCell id="cGruJ02C7jI4yUieoDy_-57" value="" style="shape=image;aspect=fixed;image=data:image/png,iVBORw0KGgoAAAANSUhEUgAABAAAAAQACAYAAAB/HSuDAAAACXBIWXMAAJcuAACXLgEO950JAAAAGXRFWHRTb2Z0d2FyZQB3d3cuaW5rc2NhcGUub3Jnm+48GgAAIABJREFUeJzs3XecXXWd//H399w7M5mSBoFQg4AriEoRxQKCouLqrhWjiCQzCRhXV9BACjAz8UhCmZLg4lqISF1dFV1//txdVwKKQfxZQBJKKJLe+/R6z/n+/ghrwQQmycz9nHPP6/mnDx/cF/lqZs77nnuuEwAAMFEX3jwuNxiN9YEb5xWNi31urFw0TgpGBYrHeCkv58Y5+by8RktulJerdPI1sVTmpLFOynv5sX/5z/Vy5U6qfvHreWm0k/Iv+s8KTurcy3+328kP/OV/5uTavVTwUruTBiTX7eR7Jd8np04vV5D3bU4qxAo6pLhPPtcm79tygWt3sW/LFQpti5uubh+uP0MAADB0zjoAAIC0qwvDUW5w9GE+8Ed45w933h8m7yb6wE90sTtEzo+V3Dh5jZPTWEnjJI237ja2W1Kbk9q81C75Nilo8y7eLa8tTtrmnduei+KtXvmtvqxz+51h2GcdDQBAmjEAAACwDxdffeP4ylH5owuxjpN3RweKj/bOTZT3EyV3mKTDJB0pabRxalZ0Stosabvkt0t7hoJYwUY5vzEfaG1vX2Hjd266ZrdxJwAAicQAAADIpE+Gt4wZpf5Jf3Vx791x3unoQDraS8dJqrLuxAHpdtI6L79BCjY6xeu8cxsU+425vFvXp4p13w6v6LCOBACg2BgAAAAl6+KrbxxfVlZ2gnPxCYrdCc75E2K5E5z8CZI7XvwczLLdklZJbpWcX+W9W5XzfpXy+VWT1L4mDMPYOhAAgOHGLz4AgFSbErYc7uL4NYHPneTlTwykE73XiXI6UXt5EB4wBN3yWumcVsbSysDreS89G+W14p5w9jbrOAAADhQDAAAgFaaHTUepEJwSOXdCIP+aWDrFSa+VdIR1GzKlTdJKea2Q9JQCrQiC/FPcNQAASAMGAABAokyrX3isz8Wnu1ivjZ1OcdKrJZ0s3s1HgnmpS07PuFhPy/kVzuvJXN4vuy2cu8G6DQCA/8UAAAAwEYZhfnU06iTnglMk9xrv3ZlO8RslN9G6DRhGbZKectKjsfyjUvDUmLbyJ7/ylSv6rcMAANnDAAAAGHHT5zSNVlnuNB/402P505zcGdpz+36FdRtgoM87PSnvl8lrWc4HyzUYLb+9eW6ndRgAoLQxAAAAhtX/vrMvBWcGcmd66WxJZ0gKrNuAZPOr5N3Dkns08Hq0uqP899wpAAAYTgwAAICDMj1sOiqOgzMlnem9znbSWyVVWXcBJWBQ0uNOenjPxwfiR++aP3eF5Lx1GAAgnRgAAABDNmVWS3VQFbzZxfE5cjrLS2c5aYJ1F5Ah2yX9zsv9LvD+V2X57t8sDsMe6ygAQDowAAAA9umT4S1jKgr9Z8WB3iWvcyS9QXxuH0gMLxWctNxJD3vnf1UeBL9YHM7aYd0FAEgmBgAAwJ9ccu3NR+bzg+c4787hs/tAWu15loB37lex90vuWTB7tXURACAZGAAAIMMurW89Lgrid3q5dzjpbZKOs24CMNzcGnn/kAv0C0XB/Xdcf9V66yIAgA0GAADIkOlzmkarPHjTC7f0v0vSmdZNAIrNr3LS/d7p/lyQf+Bb4ZW7rIsAAMXBAAAAJWzyzEWVo6ujs//3M/xeepOT8tZdABIjlvSYnO6X9HDQFz94e/PcTusoAMDIYAAAgJLiXW3jwtc7xe9xCt7l5d8qHtoHYOj6JP+w8+4B5f3P7ghnP8bXDgJA6WAAAICUmzKrpTpXpfOd9/8Yy73PScdYNwEoGdvl9T8K/E/K++P7Fjdd3W4dBAA4cAwAAJBC08ObT4ii6F2S3u/kL5BUbt0EoORFkn4jr5945+6/a/6sR62DAAD7hwEAAFKgLgxHBYXqc174LP8HJZ1s3QQg81Y7+SXe6f6qoPqnXwv/ucs6CADw0hgAACChLg0XHRLH8fu99x+W9G5JVdZNALAPPZK/z0s/GhyMfvKdm67ZbR0EAPhbDAAAkCDTrrnhsDiff68UTObWfgAp9cJHBdy9sQ9+cPf1V260DgIA7MEAAADGpjS0HJ+T+4CcnyzpreLvZgClZYWc7o3i+Hv3LJj7tHUMAGQZv2QCgIHaxtYzA+c/7L0+LOkU6x4AKAbv9aQL9KPYBz+6e/5Vj1n3AEDWMAAAQJHUNt70Gudyk+X1CUmvsu4BAGNrnfRj5fxdd4Rz/mAdAwBZwAAAACPo0vrW4yKnD0l+qpxeb90DAAm1Qk73xkHwnbvDq56zjgGAUsUAAADD7LKw6ZhCIXchn+kHgAOyQk73BkH+7tvDmausYwCglPBLKQAMg0vDRYcUosI/Sm6Kk86XFFg3AUDKxZL+n7y7V/n4e3eGc7ZYBwFA2jEAAMABuvzyWyo6x/dfIO+mSP5DksqsmwCgREVe+oXk76nI9fxgcRj2WAcBQBoxAADAfqptbD0zkJ8aSxc7aYJ1DwBkTJu8fhJId9++YNYDkvPWQQCQFgwAADAEU+sXHR24+KOSny6nU617AACSpGfl9F0FhTvvDK9ZYx0DAEnHAAAA+1AXhqMUV73f+2Cq5P/eSXnrJgDAXsWS/p+Xuzvu9d++p3V2t3UQACQRAwAAvMjU+qazXOA+5eQ+JmmMdQ8AYL90yOt7gY8X33793EesYwAgSRgAAEDS9DlNo6OK3Cec95+W0+utewAAw2KFvO4eKBQWf+ema3ZbxwCANQYAAJm254F+8YxY7mIn1Vj3AABGRJ/kfhJ4v/j2BbPvt44BACsMAAAyh3f7ASDTuCsAQGYxAADIDN7tBwD8Be4KAJA5DAAAStrkMCyvjqs+KO8+L+ls6x4AQCI96uUW93QF99x785W91jEAMFIYAACUpLqw+QgVXK13+pyTjrHuAQCkwjY53eGi4Kt3XH/VeusYABhuDAAASkptY+uZzvvPy+kiSWXWPQCAVBqQ3I/5eACAUsMAACD1/nSbv9wX5PVW6x4AQAnx+oN37lY+HgCgFDAAAEitqfWLjs7los94r09JOty6BwBQyvxWJ906GJV9499umLnZugYADgQDAIDUqWto/jvn3Oe8NEPSKOseAECmDMjre95FTXfNv/op6xgA2B8MAABSY3p96zlRoLlO/h/E318AAFveSw84p1vuvG72T6xjAGAo+AUaQKKFYRisiav/QfLXyrs3W/cAAPBiTnoslv/y8bme74RhWLDuAYB9YQAAkEiXX35LRce4vo87uWslnWTdAwDAEKyWd/9Snu/65uIw7LGOAYAXYwAAkCgzwtYJAwV/qZw+L+lI6x4AAPaXl3Y4p28VCvl/4YGBAJKEAQBAIkytX3R0kCvMlnefklRl3QMAwDDo8c7fmgt86+3h3E3WMQDAAADA1KX1rcfFgb/SS5+SVGndAwDACNjzzQHyX7prwZyV1jEAsosBAICJKQ0tx+edvuClT0uqsO4BAKAIBuX13TgfLLg7vOo56xgA2cMAAKCoahuaTwyc5sRy052Ut+4BAMBALLkfRj764j0L5j5tHQMgOxgAABRFXeOi18lHs+V0saScdQ8AAAkQe7n/lhTeNX/Wo9YxAEofAwCAETUtbH69In3Ry71f/J0DAMDeeCf9H6fgS7fPv2q5dQyA0sUv4wBGxJSGplfnFFwjp09KCqx7AABIAe/l/svnfP3d4ezHrWMAlB4GAADDas9T/eNrvdyl4lZ/AAAORCy5H+ZywbXfCq983joGQOlgAAAwLC4Lm46JomA2T/UHAGDYDDr5O6I4f93d11+50ToGQPoxAAA4KDPC1gkDsZ8lryskVVr3AABQggac/J0+py/eGc7ZYh0DIL0YAAAckOlzmkbH5cFn5XStpDHWPQAAZEC3nP51YKDQ9J2brtltHQMgfRgAAOyXyTMXVVbXFD4vubmSxln3AACQQbu9/E0u13PLnWHYZx0DID0YAAAMSRiGwZq46kL5oFnyr7DuAQAg67y0QXLze56Z9K177/1YZN0DIPkYAAC8rOkNLe+KpRY5nW7dAgAA/sYK5/3cOxbM+U/rEADJxgAAYJ+mha2nxJGanPw/WrcAAICX5qX7Xc7PvjOcs8y6BUAyMQAA+Bt7vtLPNXq5SyXlrHsAAMCQxZL7oXKDc+4Mr1ljHQMgWRgAAPzJZ8Ov1vTEPbPkNUd8pR8AAGnWK6dbyvujGxc3Xd1uHQMgGRgAACgMw/zqQtWnnXNfknSodQ8AABg22yU3r/uZSd/kQYEAGACAjKtraHm7pH+R06nWLQAAYGQ46Wk5N/OO62b9zLoFgB0GACCjLgubjikUghvkNMW6BQAAFIeX+8/Y+yvuWTB7tXULgOJjAAAyZkYYVg3E1XP4nD8AAJnVK6dbqoKqBV8L/7nLOgZA8TAAABlSN6/l/fLuFsm/wroFAACY2+jlr71r/ux7JOetYwCMPAYAIAOmNi48I1D8L5LeZt0CAAAS55eBgs/fPv+q5dYhAEYWAwBQwqZec8OhuXz+Bi93maTAugcAACRW5J0W54Ncw7fCK3dZxwAYGQwAQEnyrraxZYqTa5V0mHUNAABIjV1e7pq75l/1TT4WAJQeBgCgxEwNF74qiKKvSe6d1i0AACC1HvKKPnPX/Kufsg4BMHwYAIAS8RdP979GUrl1DwAASL1BJ329MldVz7cFAKWBAQAoATzdHwAAjBQvbZDzX7jrujk/tG4BcHAYAIAUm1q/6OggiG+W/GTrFgAAUNq83H/mY33uW9fPWmvdAuDAMAAAKRSGYX5Noeaf5fx8SaOtewAAQGb0yKmlO+i+4d4wHLCOAbB/GACAlJla33RWELjbJPc66xYAAJBRXsu8c5fdNX/Wo9YpAIaOAQBIickzF1VWj46+KK9ZknLWPQAAINu8VAikrxV6de09rbO7rXsAvDwGACAFpte3nhMH/jZJJ1m3AAAA/DW/ynn3qTsWzP65dQmAl8YAACTYJ8NbxpRH/fO99DlJgXUPAADAPngn/82B3KjZ3w6v6LCOAbB3DABAQtU1NL9Pzn1D0rHWLQAAAEO0Wd599s4Fs/6PdQiAv8UAACTMxVffOL6iLHeTl5th3QIAAHBg3L2uMPDPd9x47XbrEgB/xgAAJEjdvObJ8u6rkg6zbgEAADhI27z87Lvmz7nbOgTAHgwAQAJMu+aGw5Qvu9VLH7ZuAQAAGGb/XYjyl/3bDTM3W4cAWccAABh74bP+t0k60roFAABghGyTd5/m2QCALQYAwMieJ/z3tfBZfwAAkB3u3oHBwU9/56ZrdluXAFnEAAAYmN7Q8q7Y6XbxhH8AAJA965zXtDsWzP65dQiQNQwAQBFNnrmosnp09EV5zZYUWPcAAAAY8U7+m4Ved+U9rbO7rWOArGAAAIpkWmPLm7x0l6STrFsAAACSwa8K4qD29utn/cq6BMgCBgBghM2YcWvZwBEd9fJqkJSz7gEAAEgSLxWc08LuoHvevWE4YN0DlDIGAGAE1YWtJ6vg/11Op1u3AAAAJNyjcS64+O7wquesQ4BSxWeQgRFS29g8VZF/hIt/AACAITkziOJldQ2tn7cOAUoVdwAAw2zG3JvG9pcFX3fOfcK6BQAAIKV+mMvlZnwrvHKXdQhQShgAgGFUV7/wzQri70g63roFAAAg5dZJ/pI75895yDoEKBUMAMAwCMMwvyaubuBBfwAAAMMqklNr+ZYxjYsXf3rQOgZIOwYA4CBNDW+a5OLct53XOdYtAAAAJeq3QS5/8e3hzFXWIUCa8RBA4CDUzmu+MIhyy7j4BwAAGFFviqPCY9PmtfKMJeAgcAcAcABmhGFVf6H6X53TNOsWAACALPHyt/V05a+49+Yre61bgLRhAAD209Rw4auCQnyvnE61bgEAAMgiJz2tnPvoHeGsFdYtQJrwEQBgP9Q1tH4kiOLfcfEPAABgx0uv9pH/TV1jy0XWLUCacAcAMASXX35LRde4/mYvXWHdAgAAgD9z8otr2kZd8ZWvXNFv3QIkHQMA8DKmhjdNCqLc9yW9yboFAAAAe+H1hyCfn8y3BAAvjY8AAC+htmHhB4Iot0xc/AMAACSX0+vjqPBY7bzmC61TgCTjDgBgL8IwzK+JqxfIa474/wkAAEBaeCd9pWzrmFmLF3960DoGSBoubIAXuSxsOqYQBd+VdLZ1CwAAAA6Ac7/LRfrYt66ftdY6BUgSBgDgL0xraDk/dvqekyZYtwAAAOCgbHPyH7tj/pxfWocASZGzDgCSoraxdYacvuOk0dYtAAAAOGjVXu6SM869YGDZ0iUPW8cAScAdAMi8ujAcpajm65Kvs24BAADAiPhOea77U4vDsMc6BLDEAIBMe+Hz/v8h6Y3WLQAAABhBXsuUL3z4zvCaNdYpgBW+BhCZVVvfem4hco+Ii38AAIDS53S6j/K/r5238J3WKYAVngGATKptbJ3hnP+u5MZYtwAAAKA4nFQl+Yt5LgCyio8AIFP4vD8AAAAkyXv/7xX5nst4LgCyhAEAmXFpfetxceB/5KUzrFsAAACQCI/Guegjd4dXr7MOAYqBAQCZMLWx5S2B/I8kN9G6BQAAAMnhpR2K3YV3XT9rqXULMNJ4CCBKXl1jy0WB9AAX/wAAAHgxJ01wgb+vtrF5qnULMNJ4CCBKmHd182pCSbdIKjOOAQAAQHLlndyHzzjvgkM+dP7Z9z344IPeOggYCXwEACVpyqyW6nyl7vHSh61bAAAAkCo/LM91T+XhgChFDAAoOdPDpqOiOPix83qDdQsAAABSyGuZ88EH7rj+qvXWKcBwYgBASakLm09X5P6vpGOtWwAAAJBqm4I4/uDt1899xDoEGC48BBAlY1pD60cVuYfFxT8AAAAO3lFxEDw0bV7rJ6xDgOHCQwBRAryra6iZK6dvSCq3rgEAAEDJyEv6yOlvv8At++V9v5S+ZN0DHBQ+AoBUmxyG5dWF6tvkNMW6BQAAAKXLe91RsW3Mpxcv/vSgdQtwoBgAkFqfDb9a0xP13Cvp761bAAAAUPq8dH8hV3Hht8MrOqxbgAPBAIBUuuTam48syxX+y0tnWLcAAAAgS/wT+Zx/323h3A3WJcD+YgBA6kwLW0/xkf+ppEnWLQAAAMgityby0fvuWTD3aesSYH/wLQBIlWn1C9/qI79UXPwDAADAjH9FzgUP19a3nmtdAuwPBgCkRu285gt9ED8g6VDrFgAAAGTeeBf4++oaWy6yDgGGiq8BRCrUNbR+3km3SSqzbgEAAABekJd04Z6vCVzyoHUM8HIYAJBw3tXNq2mWNF88swIAAADJ4yS9/YzzLjjkQ+effd+DDz7orYOAfeGCCol1+eW3VHSO6/+2pAutWwAAAICX5+7tznVdcm8YDliXAHvDAIBEmjKrpTpXqf+QdIF1CwAAADBUTu4Xrj/64O3NczutW4AXYwBA4lx89Y3jK8ry/+Wlt1i3AAAAAAfg9+U5977F4awd1iHAX2IAQKJccu3NR+aDwv/I6VTrFgAAAOAgrMjn4vfcFs7dYB0C/C8GACTGlIaW43NOSySdaN0CAAAAHDy3Rj6+4M4Fc/5oXQJIUmAdAEhSbeNNr8k5/Upc/AMAAKBk+FfIuaXTGxeeZl0CSAwASICp9U1nOeV+Keko6xYAAABgmB0RK36wtrH5bOsQgAEApmrnLXynC4IHJB1q3QIAAACMkHFO7r66hua/tw5BtjEAwMzUeS0fdj7+LyfVWLcAAAAAI6xKzv24trHlY9YhyK6cdQCyqa6xebqT+zdJZdYtAAAAQJHknPSR089797plS5css45B9jAAoOjq5rV8SnKLxR0oAAAAyJ5Ach887dx371i+dMnvrWOQLQwAKKq6xtZ/kvQNcfEPAACA7HLOufeefu572pYtve+31jHIDgYAFE1tQ+tVzvlbJDnrFgAAAMCYk9N7zjj3PR3Llt73G+sYZAMDAIqitrF5jnNqse4AAAAAEsTJ6T2nn3tBvGzpkqXWMSh9DAAYcXUNLXOdc03WHQAAAEAiOb3j9LdfULnsl0vut05BaWMAwIia1tj8JTk337oDAAAASLhzGAEw0hgAMGKmzWtZ4OUarTsAAACAlDjntPMuqFm+dMkS6xCUJgYAjADv6uZVf1nezbYuAQAAANLESW89/e3vHr/sl/f9TPqSdQ5KDAMAht20xtFNkq6y7gAAAADSyb35jPN+PX7Z0iX/Y12C0sIAgGFVO6/lBklXW3cAAAAAKfem097+7rHLf7nkZ9YhKB0MABg2tY3N851cvXUHAAAAUAqc3Ft4JgCGEwMAhkVdQ8sXnXPzrDsAAACAUuKkt55+7gXxsqVLllq3IP0YAHDQahtar3JON1h3AAAAACXJ6R2nn/fuwWVLlzxknYJ0YwDAQalrbPmCc1pk3QEAAACUNvfO08+9oG/Z0iUPW5cgvRgAcMDqGpovl3P/Yt0BAAAAZILTO0879907li9d8nvrFKQTAwAOSO28lkud3NckOesWAAAAICOcc+69Z5z77m3Lli55xDoG6cMAgP1W19hc5+RukxRYtwAAAAAZ4+Tc+0477z2bly+971HrGKQL795iv9Q1tlwk6dvi4h8AAACwFMn5T9x53Zx7rUOQHgwAGLLpDS3vip3+U1KFdQsAAAAADcbOffDu62b91DoE6cAAgCGpq1/4ZgXx/ZKqrVsAAAAA/ElPELv33H79rF9ZhyD5GADwsuoaF71Oin4pabx1CwAAAIC/0R4reMfd8696zDoEycYAgJdU29B8onPuV5KOsG4BAAAAsE/bAh+fe/uCuc9ahyC5eJAb9ml62HSUc26JuPgHAAAAku7w2Ln/nh42HWUdguRiAMBeTb3mhkPjKFgi6XjrFgAAAABD4U6ICsHPLg0XHWJdgmRiAMDfmBGGVUFZ2f+VdIp1CwAAAIChc06vjeL4p58Nv1pj3YLkYQDAX5kchuUDUfV/yOut1i0AAAAADoD3Z/VEPT++/PJb+Ppu/JWcdQCSIwzDoCeq/q6k91u3AAAAADgoxw+Oil71ofPP/o8HH3zQW8cgGbgDAH+yJq5aJOlC6w4AAAAAB89LH1sdV/+rdQeSg68BhCSprqFltpyarTsAjIzC4ICiKJKPIkVRQXEUSZKCXE65XF4ul1Mul1O+rNy4FCOB8882zh+A8+7KOxbMutm6A/YYAKDaxpaPOenfxR0hQOp5H6u3q0u9ne3q6+vVYG+vBvp6FL3wC//LyeVyKh9VpbLKSlWMqlTV6DGqrBkt5/jrIQ04/2zj/AG8BO+dm3LXdbO+bR0CWwwAGVdb33quC/x9knhACJBSA3296ti1Qz0d7erp7JD38bD+850LVDV6jKrGjtXYQw5TWcWoYf3n4+Bw/tnG+QPYDwPO6713LJj9c+sQ2GEAyLBpYespPvK/kjTeugXA/okKBXW17VL7jm3q7miXVLxn+4yqrtHYCYdp7KETlcvni/a6+DPOP9s4fwAHoV3Kve3O+Vc+YR0CGwwAGTU9bDoqjoJfSzrOugXA0A0O9Gvn5o1q27Zl2N/p21/OBRpz6ARNOOpYlY+qNG3JCs4/2zh/AMPBSxvKcvFbbgvnbrBuQfExAGTQ9DlNo+PyYKmcTrduATA0A3292rl5g9p3bJP3yfomH+ecxk44XIceeQwXAiOE8882zh/A8PNPlA/Eb1vcdHW7dQmKiwEgY2bMuLVsYGLHf0q6wLoFwMvzPtbOTRu0Y9MG83f8Xo5zTuMOP1KHH3OcglzOOqckcP7ZxvkDGGE/7851v/feMBywDkHx8Dd0pnj3uvf+4g45fcS6BMDL69y9U+ufXaHOtl0q5md8D0Zfd6c6du1QecUolVfybuDB4PyzjfMHUATHl8XlxyxfuuTH1iEoHgaADKltHD3POX3eugPAS/NxrK3rVmvbutV/+r7uNImjgjp2bddgf5+qx47jK8T2E+efbZw/gGJyTmecce4FA8uWLvmVdQuKg48AZETtvOYLnXf3ijMHEm2gt0cbnn9W/b3d1inDoryyUse88mRVVFZbp6QC559tnD8AI945/4k7rpvzPesQjDwuBjNgWtj8eh+5pZL4CQwkWMeuHdq86jnFcbI/67u/giCno054lUYfcqh1SqJx/tnG+QMw1hvH8dvvvn7u76xDMLL4CECJe+Hr/h5w0gTrFgD7tnvbZm1Z9cfEPeF7OHjv1bFrp/JlZaqsHm2dk0icf7Zx/gASoMw5949vOP9d3/vDg/d3WMdg5DAAlLDJMxdVlpXpZ056tXULgH3buXmDtq5bbZ0x4rradsvHsarHjrNOSRTOP9s4fwAJMjqO3dtfd9YF337810sGrWMwMhgASpZ3Z73r1/fI8XV/QJJtW79GOzaus84omt6uDnkfq3oMFwES5591nD+AxHE6MijTyR86/+wfPPjgg6V3WxIYAEpVXePoG+X8P1l3ANi3XVs3afuGtdYZRdfb2aFcLqfKmjHWKaY4f86f8weQUK/e7ctyy5cu+YV1CIYfA0AJqm1snuqkhdYdAPatfed2bV39vHWGme72dpVXjNKoqmw+m5Tz5/w5/+yeP5AGTu5tZ5x3wcplS5c8bt2C4cUAUGJqG5vPdnI/kJS3bgGwd72dHdrwx6eV9fvqutp2qXrcOJWVV1inFBXnvwfnn21ZPX8gRZyk95163gU/X750yQbrGAyfwDoAw+fS+tbjnNyPJPHTFEioOCpo46pnS/Jp3/vLe6+Nf3xWUaFgnVI0nP+fcf7ZlsXzB1JoVCD/o6nhTZOsQzB8GABKxOSZiyqjwP9Q0mHWLQD2xWvTqj9qsL/fOiQxBgf6tWnVc1Im3g/l/F+M88+2bJ0/kFZuYlDI/XhGGFZZl2B4MACUiOqa+GuSzrTuALBvu7duUefundYZidPVtku7t22xzhhxnP/ecf7ZlpXzB1LN6fT+qPpW6wwMDwaAElDX2HKl5OusOwDsW2FwQNs3rLHOSKxt69eqMDBgnTFiOP+XxvlnW6mfP1AKnHRJbWMn1B9YAAAgAElEQVTLFdYdOHg8BDDlpjW0nO+d7nKMOUCibV7zR/V1d1tnJJb3sQqFQY0Zf6h1yojg/F8a559tpX7+QAl59xnnXvDQsqVL1liH4MBx0Zhil9a3Huedvut44j+QaN0dberYucM6I/E6dmxXT2e7dcaw4/yHhvPPtlI9f6CUOCkvpx9MaWg53roFB44BIKXqwnAUD/0D0mH7+jXWCSnhtXXdauuIYcf5DxXnn22lef5ACTo07/TDyTMXVVqH4MAwAKRVVPN18dA/IPG623ert7vLOiM1+rq71N3RZp0xbDj//cP5Z1upnT9Qqrx0RnV1xEMBU4oBIIV46B+QHjs2rbdOSJ0dG0vnz4zz33+cf7aV0vkDJc1pyrTGls9ZZ2D/MQCkzLSGlvO91GTdAeDl9XZ2qKezwzojdXo629Xb1WmdcdA4/wPD+WdbqZw/kAVeWjStsfk86w7sHwaAFJlWv/DY2Ol7PPQPSIe2HVutE1KrbXv6vxec8z9wnH+2lcL5AxlR5qXvTQ+bjrIOwdAxAKREGIZ5H8T/7qQJ1i0AXl4cxzz5+yB07NqpOI6tMw4Y539wOP9sS/v5A9niJvoo+MGMGbeWWZdgaBgAUmJ1XNUs6WzrDgBD07Vrh+I4ss5IrTgqqGv3TuuMA8b5HxzOP9vSfv5A1njpLQMTO6+z7sDQMACkQN28lvc7775g3QFg6Np2bbdOSL2OndusEw4Y53/wOP9sS/P5A9nk59Y1tH7IugIvjwEg4S6tbz1OXndKctYtAIbGe6/ejnbrjNTr7miX9946Y79x/sOD88+2tJ4/kGFOzt8+paHleOsQvDQGgAS7/PJbKqLA/1DSIdYtAIaut6uTz68OgziO1ZfCp4Fz/sOD88+2tJ4/kHHjc07fu/zyWyqsQ7BvDAAJ1jmu78uSzrTuALB/ejrarBNKRndn+t5J5fyHD+efbWk8fwB6Y9e4/mbrCOwbA0BCTZvX/HHJ/ZN1B4D9180FwLBJ459lGpuTKo1/lmlsTir+LIF08tIVtfNaP2ndgb1jAEigqeHCV3nvFlt3ADgw/b091gklo7+n2zphv3H+w4fzz7Y0nj+AF3j/jbqw9WTrDPwtBoCEmTxzUWUQxd+XNMa6BcD+KxQGFRUK1hklIyoUUvXnyfkPL84/29J2/gD+zEk1iuLvzwjDKusW/DUGgISpqo6+Kuk06w4AB2awt9c6oeQM9KfnHVXOf/hx/tmWpvMH8GLudQOF6i9bV+CvMQAkyLSG1o86p2nWHQAOXH8fFwDDrb8nPX+mnP/w4/yzLU3nD2AvnD5V19hykXUG/owBICGm1S881jvP5/6BlCsMDlgnlJyoMGidMGSc//Dj/LMtTecPYJ++fml963HWEdiDASABwjDM+1z8XUnjrVsAHJw4jqwTSk4UpefPlPMffpx/tqXp/AHs07hCzv/b5Mnfz1mHgAEgEdbE1fPk9VbrDgAHz0exdULJiaP0PASM8x9+nH+2pen8Aeyb8zqn+qS111p3gAHAXF1j89vkxf8ZgBLBO4DDL07RO4Cc//Dj/LMtTecP4KV5p3nT6hfypqcxBgBDdeHN4yR3jyRuhwFKBL+sDj8fp+ddVc5/+HH+2Zam8wfw0pyU90H83YuvvpGPPRtiALBUiL4hiQdiAAAAAMiCY8vK8jz43BADgJG6eS2fkvMft+4AAAAAgGJx0kfrGpvrrDuyigHAQF1D8995r0XWHQAAAABQfO5fpzc0nWRdkUUMAEU2OQzLJfd9J9VYtwAAAACAgeooCP5txoxby6xDsoYBoMiqo5ovyel06w4AAAAAsOK83jA4sb3BuiNrGACKaGpjy1skP9u6AwAAAACsxXLXTmtseZN1R5YwABTJjDCsCqQ7xVf+AQAAAMCerwaU7pw8c1GldUtWMAAUyUBU3SLpVdYdAAAAAJAgJ1fXRDdYR2QFA0AR1M5b+E5Jn7HuAAAAAIAEumLqvKZ3WEdkAQPACJsx96axzse3S3LWLQAAAACQQIHzwd114c3jrENKHQPACBsoy31F0iTrDgAAAABIKicdoyhaaN1R6hgARtC0eS0flNMU6w4AAAAASD4/va6h9SPWFaWMAWCETLvmhsO897dadwAAAABAajj/jcuu/fJE64xSxQAwQnw+v1hy/A8XAAAAAIbusEJu8KvWEaWKAWAE1DW2XCy5D1l3AAAAAEAKXVjb2PIx64hSxAAwzGaErRMk3WzdAQAAAAAp9tVp19xwmHVEqWEAGGYDkf+KpMOtOwAAAAAgrZw0wefK+FaAYcYAMIxq57X8g6SLrDsAAAAAIPWcptQ2LPyAdUYpYQAYJp8Mbxkjr29YdwAAAABAqXAu/sr0OU2jrTtKBQPAMCkr9Lc66RjrDgAAAAAoIZPiUbkbrSNKBQPAMKhraHm7nC6z7gAAAACAkuP9Z+oam99mnVEKGAAO0owwrPJO35TkrFsAAAAAoAQFkrtt8sxFldYhaccAcJAGour5TnqldQcAAAAAlLBXVY2OGq0j0o4B4CBMrW86S9LnrTsAAAAAoOR5za5tbD3TOiPNGAAO0IwZt5YFgbtNUs66BQAAAABKnZPygfw3wzDMW7ekFQPAARo4vONKyb3OugMAAAAAssJLZ6yJqj9n3ZFWDAAHYGp40yTv1GDdAQAAAAAZdN3U+kVHW0ekEQPAAchFwVecVGPdAQAAAAAZNDoI4putI9KIAWA/TZ3X+l4v9wHrDgAAAADILj+5dl7LP1hXpA0DwH6YEYZVgfdfte4AAAAAgKxzXl+dEYZV1h1pwgCwHwajmi9KOt66AwAAAACg4wbi6qutI9KEAWCIahtveo2Xn2ndAQAAAAB4gdfcKQ1Nr7bOSAsGgCHxzin3r5LKrEsAAAAAAH9SnnPB1yXvrEPSgAFgCOoaW6ZJert1BwAAAADgb5xXO2/hxdYRacAA8DIuDRcdIrmbrDsAAAAAAHvnfLzw4qtvHG/dkXQMAC8jjgo3SjrMugMAAAAAsC9uYllZ/jrriqRjAHgJUxsXnuHlLrXuAAAAAAC8NCd9ZmrYcqp1R5IxALyEwMVflpSz7gAAAAAAvKxcEOlm64gkYwDYh2nzWj8hr3OtOwAAAAAAQ3Z+XUPrR6wjkooBYC8mz1xU6b2/0boDAAAAALCfnL95RhhWWWckEQPAXlTVFK6VdJx1BwAAAABgv03qL1TPtI5IIgaAF5ka3jTJyV1p3QEAAAAAODDO6dqp4U2TrDuSJm8dkDRBlLtZEreLAFBUGFR/d6f6ujrV392p/p4uDfb3qTDQr0J/vwb7exUVBhVH0Z7//uCAcXFp2r1aWvvoQ9YZMML5Z9v/nn+urFySFORyyuXLVFZRqXxFhfLlFSqrGKWK6tGqqKrRqJrRqqgerVy+zLgcQAJUBVHuRkmftA5JEmcdkCTTGlrO904PWHcAKL6+rg517tymnvZd6mnfrZ72Xerv7rLOAgAcgIrqGlWNPURVY8eretyhqh4/QZWjx1pnASg+72P39ruun7XUOiQpGABeMHny93PVJ639g5z43kigxHnv1d22U+1bN6lzx1Z17tyqwb5e6ywAwAgqH1WlmkMP15jDJmrs4Uepevyh4ldhoPQ56bHjct1vCMMwtm5JAj4C8IKqk9b8k5zj4h8oUYWBfu3evF5tm9erbetGLvgBIGMG+nq0a+Ma7dq4RtKeQWDsEUdr3BHH6JCjJv3pYwYASouXzlgdV0+T9C3rliRg9pRUF948TlHheUmHWrcAGD6FgX7t3rROO9ev0u4tG+Rjhl8AwN9yLlDNoYdpwqQTNGHSK1VWMco6CcDw2jaYq/i7b4dXdFiHWOMOAEkuiq7xXPwDJcF7r/YtG7R11bPatWktF/0AgJflfbznI2E7tmrtst9p/NGTNPGEkzV24tFyjvfLgBJweFncf6Wk0DrEWub/Rptav+joIIieE0/+B1JtsK9HW1Y+o22rn+XhfQCAYVFRVaOJJ5ykiSe+WmWjKq1zAByc3nwuftVt4dwN1iGWMn8HQOCiG8XFP5BafZ3t2vz8Cm1d+YziqGCdAwAoIf09XVr35KNav+IxTZh0oo4++VRVjT3EOgvAgaksFIJ5kmZYh1jK9B0A0xsXnhYr/oOkwLoFwP7p3LFV65/6g9q2bJTkrXMAAJngNO7IY3TsKWdo9ISJ1jEA9l+Uy+n0b4Wzn7QOsZLpOwBiRS2S4+IfSJHutp3asOIx7Vy/2joFAJA5fs+3yWxer3ETj9akU9+omkMOs44CMHS5QuRulPR+6xArmb0DoK6h+e/l3E+tOwAMTV9Xh9Ys++2fvr4JAAB7Toce8wodd9pZGlUzxjoGwBB5F7zrruuuesC6w0ImB4AwDIO1UfUjXjrDugXAS4sKg9r0zOPa+PRyxXFknQMAwN9wLtARf3eKjn3tmcqXlVvnAHg5Xsteke8+MwzDzH1dVCY/ArA2rq7l4h9Ivu1r/qg1y3+rwb5e6xQAAPbJ+1ibn3tSO9et0nGnv0mHHfdK6yQAL8Xp9DVR9UWSvmOdUmyZuwNg8sxFldU10TOSJlm3ANi7/u4urXzkIbVtyfS3tAAAUmrckcfqxDeco4qqGusUAPvk1ijX9eo7w7DPuqSYMvcAvOqawufFxT+QUF6bn3tSj/30Xi7+AQCp1bZ5vZb99Afa8vwK8U01QFL5V/hCzT9bVxRbpu4AqAtvHqeosErSeOsWAH9toK9HK3//kHZvWmedAgDAsBl3xDF65VnnqbyyyjoFwN/arVz+hDvDmW3WIcWSqTsAfFyYIy7+gcTZtXGNlv/PD7n4BwCUnLYtG7T8vv/QLn7GAUk0XnHhC9YRxZSZOwBmhK0TBiK/StJo6xYAe3gfa93jj2jjM4+LWyQBAKXN6chXvUavOP1Nci5T78EBiealrqAweMIdN1673bqlGDLzt89A5OvFxT+QGIP9fXr6l/+jjc8sFxf/AIDSt+c5Nyse/G8N9PVYxwB4gZNqlC+fZd1RLJm4A2B62HRUHAXPS6q0bgEgde3aoWcfvk/9Pd3WKQAAFF1FVY1OPucCVY8/1DoFwB69cZz7u7uvv3KjdchIy8QdAD5yXxQX/0AitG3ZoKce/C8u/gEAmdXf06Unf/4TngsAJEdlkIvnWkcUQ8nfAVAX3vgKRflnJZVbtwBZt3XlM1r16K/kPbf8AwDgXKDjX/8WHfHKU6xTAEgDkdfJ9yyYvdo6ZCSV/h0Ahfx14uIfMLfuid9r5SMPcfEPAMALvI+16tGHtf7JR61TAEjlgfPXWkeMtJK+A2B6Q9NJkQuedFLeugXILq81j/1Wm557wjoEAIDEOuKVp+iEM9+qEv/1HEi6KPDxa25fMPdZ65CRUtJ3AMQuuJ6Lf8CO914rH/kVF/8AALyMLc+v0KpHHuZOOcBWLnbBPOuIkVSyE+PUsOXUINJjKvGRA0gur1WPPKwtK5+2DgEAIDUmnnCSTnzj21TCv6YDSRcHCl5/+/yrlluHjISSvTjORX6+SvjfD0i6tct/x8U/AAD7aeuqZ7X6sd9YZwBZFsTy9dYRI6Ukp8XpjQtPixU/phL99wOSbt0Tv9eGFcusMwAASK1jXvN6TXrtmdYZQFbFuZxO+1Y4+0nrkOFWku+QR4obxMU/YGLryqe5+AcA4CBteOoP2vL8CusMIKuCqOCvto4YCSV3kTyloenVORc8qRIdN4Ak2715vZ556Gc8wAgAgGHgXKCTz3mXxh91nHUKkEVRnAtOuTu86jnrkOFUchfJObl6leC/F5B0Xbt26LlfP8DFPwAAw8T7WM/9v1+oe/dO6xQgi3KuEJfcXQAldQdAbUPziXLuGb76Dyiuwb5ePb7kR+rv6bZOAQCg5FRU1ejUCz6ssopR1ilA1gxGXifds2D2auuQ4VJi75S7ei7+geLy3uvZXz/AxT8AACOkv6frhbvsYusUIGvKcs7PsY4YTjnrgOEyNbxpUuCDb6qE/p2ANFi7/LfasW6ldQYAACWtv7tTir3GTjzaOgXIGHfqqee/8+7lD97fbl0yHErmDoAgCq6RVG7dAWTJro1rtOnZkvt2FAAAEmnD08u1e/N66wwga8pzUe4q64jhUhIDwCXX3nyk5OqsO4AsGezr1apHHpbEQ/8AACgOr+d/+6AG+3qtQ4BM8dKM6WHTUdYdw6EkBoCyXOFqSTwVBSgar+d/90sN9PVYhwAAkCmD/X36428fFAM8UFSjoiiYaR0xHFI/AEy75obDvHSZdQeQJZufe4pbEAEAMNK2ZYO2PP+0dQaQNf90abjoEOuIg5X6AUD5/OckVVlnAFnR39OldU88Yp0BAECmrVn22z0PBgRQFE6qKRSiz1h3HKxUDwAzwrAqlvusdQeQJSt//5CiwqB1BgAAmRZHBa189GHrDCBTnNMVk2cuqrTuOBipHgAGo+rpTppg3QFkxfY1f1Tblg3WGQAAQFLb5vV8FS9QXIdX1cRTrCMORmoHgMmTv5/z0hesO4CsiAYHtGb5b60zAADAX1jz2G8UDQ5YZwCZ4eSvCsMwtdfRqQ2vefWaj0o60boDyIr1Tz3G1w4BAJAwA3092vj0cusMIEtetSqu/qB1xIFK7QDgvSuJr2EA0qCvq0Nb/viUdQYAANiLjc8+rt7OdusMIDMCuautGw5UKgeAqfOa3iHpTdYdQFasWfZbxXFknQEAAPbCx7HWPfF76wwgO7w/q7ax+WzrjAORygEg54PZ1g1AVnTv3qFdG9daZwAAgJewc/0ade3abp0BZIaTS+U1aeoGgEvDltd66e+tO4CsWPv47yV56wwAAPCSvDaseMw6AsiSD0wLW0+xjthfqRsA4kizJTnrDiALOndu5Wv/AABIiV0b16pz5zbrDCArXBzFqXsuXaoGgKn1i4720kXWHUBWrH/yD9YJAABgP3AXAFA8Tm5KXdh8hHXH/kjVAJDLRZ+RVG7dAWRBT/tutW3ZaJ0BAAD2w+5N69XTvts6A8iKChXcp60j9kdqBoDLL7+lwnt/mXUHkBWbnn1cfPYfAIC08dr03BPWEUB2OH16chim5k3q1AwAneP6PiG5idYdQBYM9PZo+9rnrTMAAMAB2LHmeQ329VhnAFlxZHVU/VHriKFKzQDgnftn6wYgK7auekY+jq0zAADAAYjjSFtXPWudAWSH85dbJwxVKgaAafUL3+q83mDdAWSB917b+KUBAIBU27rqGXnPR/mAovDuzVPrm86yzhiKVAwAPohTs6gAade+ZYP6e7qsMwAAwEHo7+5S+1Ye5gsUiwuCVFyzJn4AuOTam4+UdKF1B5AV3DIIAEBp2LrqGesEIDOc9LE0fCVg4geAfL7wGUll1h1AFhQG+rVr01rrDAAAMAx2b1ynwuCAdQaQFeVp+ErARA8Ak8OwXN7PsO4AsmLXxrU8/A8AgBIRx5F2b2TYB4omBV8JmOgBoCqquoiv/gOKZ8e6ldYJAABgGO1cv8o6AciSxH8lYKIHACf3OesGICsKA/1q37rJOgMAAAyj3Vs2qDDQb50BZEfCvxIwsQNAXWPrGyW90boDyIq2zevlPbf/AwBQSnwcq20L3wYAFI13b65tbD3TOmNfEjsAeMV89h8oot2b11snAACAEdC2hZ/xQDE55z9l3bAviRwAps9pGu3kPm7dAWSF915tfFcwAAAlac/I760zgMzwXp+cPqdptHXH3iRyAPDl7hJJifwDA0pRd9tODfb1WmcAAIARMNjXq+7du6wzgMxwUk08KrjIumNvkjkAyF1m3QBkSQcP/wMAoKS1b+dnPVBUXon8GEDiBoCp9U1nyen11h1AlnTs2GKdAAAARlDnjq3WCUDWvHFa2Jy469rEDQCBC3j4H1BUXp07t1lHAACAEdS5nQEAKDYfJe8ugEQNANPnNI2W08esO4As6evq5PP/AACUuIG+HvV1dVhnAJni5S5J2sMAEzUA8PA/oPh49x8AgGzo2rXDOgHIFCfV+Ipcor7dLlEDgJxL3C0SQKnraeOpwAAAZEFPOz/zgWLz8on6iHtiBoCp9U1neekM6w4ga/hlAACAbOBnPmAiUQ8DTMwA4ALe/Qcs8MsAAADZ0N220zoByKQ4Ts7X3CdiAJg8c1Glk5ts3QFkTVQYVH9Pt3UGAAAogv7ubsVRwToDyBzndfHkmYsqrTukhAwANTXRhZLGWncAWdPf1WmdAAAAisarj5/9gIWxVTXR+60jpIQMALFUa90AZFF/D78EAACQJf09XdYJQCa5hFzzmg8AU+sXHe2kd1h3AFnEuwAAAGRLfzc/+wEj77nk2puPtI4wHwCCoFArKWfdAWQRn/8HACBb+ru5AwAwkivLDX7SOsJ8AJDcFOsCIKsG+3utEwAAQBHxsx+w4xXUWTeYDgB19QvfLOlkywYgywr9fdYJAACgiAoD/dYJQIb519Q2tp5pWWB7B0AQJeJBCEBWDTIAAACQKfzsB2w5Z/swQLMBoC4MR0nu41avD0CKBgesEwAAQBExAADGvL/48stvqbB6ebMBwEfVH5A03ur1AUgFBgAAADIlLgxaJwBZd2j7+P73Wb242QCQlO9BBLIsjiLrBAAAUET87AfsBd7uWthkALjs2i9P9NIFFq8N4M98HFsnAACAIuJnP5AI75sRtk6weGGTASDKDU52Ut7itQH8Gb8EAACQLXHMHQBAApQNFvyFFi9schHupYssXhcYLoXCoAb7etXf26tocFBRVFAcRYrjKFUX1d6npxUAABw8H8fa+Pwz1hlD5oJAQZBTkMspl88rly9TRWWlykdVKZfn/USkl3e6SNKtxX5dV+wXnFa/8FgfxGstXhs4EN7H6u3qVE9Hu7o72tTf26OoULDOGha7Vz9tnQAAAIps/PGvtk4YFrl8XhWV1aoaM1bVY8apsma0nOMSA6kRx3Fu0t3XX7mxmC9a9NnMu/gicfGPhIvjWF27dqht13b1drQrTtG7+gAAAFkQFQrq6WxXT2e7dmxcpyAIVDVmnMYcepjGHHKonDN73jkwFEEQRJMlfbmYL1r8+2acPl701wSGqLezQ207tqpj5w4+IwcAAJAicRyrq22Xutp2acuavMYccqjGHTZRlTVjrNOAvXP+4yryAFDUd+JrG5pPdM49X8zXBIaip6tDuzatV2fbbuuUouIjAAAAZE+pfARgqCpHj9GEI45Rzfjx4kZkJI33/pV3LZizslivV9Q7AJzcxcV8PeDldHe0adv6Nerr7rJOAQAAwAjo7ezQ+s4VqqwercOPfYWqxoy1TgL+xDlNlnRTsV6vuB+McY7b/5EIhcEBbVr1nNY98xQX/wAAABnQ292ptc88oQ3PPaXBgQHrHOAFrqjfkFe0AWBq2HKq5F9TrNcD9s5r99bNWvn4H9S+Y5skbx0EAACAIups263VTzyq3ds2i98FkQCnTQtbTynWixVtAAgiz7v/MBVFkTY+/6y2rF2pOCqNr/EDAADA/ouiSFvWrNT6554pma93Rnr52H+sWK9VtAHAyxXtXwp4sd7uTq1+8jF17NphnQIAAICE6GrbqdVPPqberg7rFGSZV9E+BlCUAaC2sfVMJ72yGK8FvFj7jm1au+JxDfb3WacAAAAgYQYH+rX26SfUvnO7dQqy66TpjQtPK8YLFWUAcIo/UozXAV5s99ZN2rzqOXnP57sAAACwd957bVr5nHZu3midgoyKXfzhYrxOkQYAV5R/GeAvbVu/Rlv+P3t3Hl/XXd/5//0992q5kq5kSZZtWU7sWN4DMYFAmJa0A5ShhZm203mUskwgD5ZQsieUsEz5jaZMoQllyQqYQEMY9t+P0j6mQBrSZUKnJJCkOCR25DjeLcubZO3Lvef7+yNR4jiSfJdzzvece17Pf5JYuue8H4/IV/f7+X6+n7PvaUa7AAAAoARWRw/s0bED+1wHQRr5qo0CwGV/evN6K20O+z7A6Y4d3KcTAwddxwAAAEDCHB84oOOH9ruOgbQxuuCdfZ/ZEPZtwu8AMPovod8DOM3Q0QEdP3zAdQwAAAAk1LFD+zU0eNh1DKRMplj83bDvEUEBwKP9H5EZOXlcg3t3u44BAACAhDuyb49Gh3iCFKJjTfhH50MtALzzv322R9a+Msx7AHOmJyeeGfjnOggAAABqgNXh3bs0MznpOgjSwurV//Vjn+sO8xahFgAyXvE/SzJh3gOQJGt9Hdr9pHzfdx0FAAAANcL3izq0ewefMREVL5sp/l6oNwjz4lbRTDIEjuzdremJcdcxAAAAUGOmJiY0uP9p1zGQGjbUNXRoBYB3fvSTnVb6jbCuD8wZHTqh4WODrmMAAACgRg0fPaLR4SHXMZAOr337Rz7VHtbFQysAeNnsfzJSNqzrA9Izrf+D+/e4jgEAAIAaN7j3KY4CIAp1DXXZN4d18dAKAIb2f0Tg+MEDmp2ech0DAAAANW52ZlonBg66joEUCPMofSgFgD+8/rM5K/NbYVwbmDMzNakTR3gTBgAAQDROHD6omSk2nxC6N1599a0NYVw4lAJAc3PhtZKawrg2MOfEwEFZy0P/AAAAEA1rfboAEIXm0faZUObphXMEwPPeFMp1gWfNTk/r1PGjrmMAAAAgZU4dH9TszLTrGKh11oaypg6nAGDtb4dyXeBZ7P4DAADABWstXQCIQjIKAJf+6U2bJfUGfV1gTrFQ0PBxHvsHAAAAN4aPDsovFlzHQG3bcNmf3rw+6IsGXgDIGhPaIwsASRo5eVyWR7AAAADAEWt9jZw47joGal7wR+tDOALA+X+E6xS7/wAAAHCMeVQInbG/E/QlAy0AvKPv1lYr++tBXhM43czUpCbHxlzHAAAAQMpNjI1qdppHAiJU//6KvjtagrxgoAWA+sLMf5BUH+Q1gdONnDwuieF/AAAAcM0++9kUCE3DeGHqdUFeMNACgK9wHlUAzJkYOeU6AgAAACBJGh8ZdpQQDOkAACAASURBVB0BNc6YYqDHAAIsAFhjjN4Y3PWAF7LW18ToiOsYAAAAgCRpcnRE1jKcGmEyb5asCepqgRUA3vXxz7xc0sqgrgecaXJslDdYAAAAxIbv+8ynQtjOuezjn3tJUBcLrABg5LP7j1BNsvsPAACAmJkY44gqwmVUCGytnQ3qQkbeb1mGsyFEU1OTriMAACLW2Nio11xyiS58+Su0adNmLV+xXO3tHZKkoaGTGjwyqJ07d+jRRx7WTx94QFNTTOQGEK2ZST6jIlxW5vWS/jKIawVyluCyvr5GFZuHJDUGcT1gPnsf/zdNjtNiFaShPTtcRwCAefWsWqV3vONS/fab3qTGxtI+XkxNTenHP/yhvvGNr+vQwYMhJwSSq/28za4j1JRcS15rtmx1HQO1bSI/3NBx223XTFd7oUCOANhC02+IxT9CNkMHAADUvIaGRn3gyqv0zW9/V7//B39Q8uJfeqZb4Pf/4A/0zW9/Vx+48io1NPDRBED4+IyKCDSNLZl6dRAXCqQA4Bnv9UFcB1hIcXZWxWLRdQwAQIhWnXOOtt31FV36zneprq6u4uvU1dXp0ne+S9vu+opWnXNOgAkB4MWKhYIKhVnXMVDjrDGBrLmD6QCQpQCAUBV5UwWAmrZ2ba/u/OKXtH7DhsCuuX7DBn1p212BXhMA5uMXCq4joMYZq98K4jpVFwDe+dFPdkq6MIAswIKKPrv/AFCruru7devtd2jp0q7Ar93e0aFbbruDTgAAofLpVEXIrPSqy/o+t6Ta61RdAMhk6l8bxHWAxfCmCgC1qb6+QTd/5rPq6OwM7R5LlizRp266WfX1DaHdA0C6+WxWIXwZW/B/o9qLVL1wt8an/R+howAAALXpfZdfrt7edaHfp7d3nd53+eWh3wdAOvlFjgAgfF4Aa+/qCwAygZxFAAAA6dLd3a23vPVtkd3vj972dvWsWhXZ/QAACJJV9XMAqioAvLPvL841Uvhle6Sel8m4jgAACNi7Lnt3VdP+y5XNZnXppe+K7H4A0sPLZF1HQDpseW/fTVVVsqsqABg/84ZqXg+UigIAANSWfD6v//Dbvx35fd/wxjequbk58vsCqG2ex2dVRGO2aF5XzeurOwJg9e+rej1QogxvqgBQU37nTW9WY2Nj5PfN5XJ61cUXR35fALWNzSpExch7bTWvr64DQKp6CiFQikw2uhZRAED4fvf3f9/ZvV/5SgoAAILlZTkCgKjYS6p5dcUFgGfPHpxbzc2BUmXq6pThjRUAasLWrS/T2rW9zu7fu57xRQCC42WyyrJZhej0vrvvppWVvrjiAsCsn/nNSl8LVKK+Iec6AgAgAC53/yVpVQ9PAgAQnIbGJtcRkDLFoveaSl9bcQHAVNl6AJSrLkcBAACSLp/P67Wvq/oxxlVpaWlxen8AtaU+F/08E6RexWvxymcA2MpvClSisZECAAAknavhfwAQlno2qRAxE3UB4D19n+2QtKnSmwKVyOXbXEcAAFTJdfu/JI2NjbmOAKCGNPEZFdF76WV9n1tSyQsrKgD4fvGSSl8LVCrXkpfn8WMHAEnlevjfnIOHDrqOAKBGeJ6nXHPedQykj6fC7K9V9sKKcP4f0TPGKNfS6joGAKBCcdj9l6Tdu55yHQFAjWjKt8kY4zoG0sh4Fa3JKyoAWFV2M6BaTW20WAFAEsVh+N+cn//8QdcRANSIptaKurCBAFS2KV92AeDSP/l0s6y9sJKbAdVq6+iSRJUVAJImLsP/pqen9NCDFAAABMEo397pOgTS66I/vP6zZU+gLLsAUNeofyeprtzXAUGoa2hUroVzVgCQNHFp//+H++/X+Pi46xgAakBTPq/6GBQ2kVoNTU3+K8t9UdkFAF/69XJfAwSpbWmX6wgAgDLEZfifJP3NX/+16wgAakRb5zLXEZByxvNfU+5rsmXfxOhiW+6LgAC1dXZpcN8eWeu7jgKgBI2NjXrNJZfowpe/Qps2bdbyFcvV3t4hSRoaOqnBI4PauXOHHn3kYf30gQc0NTXlODGCFpfd/7179+ixx7ZHek9+/oHa5Hme8h1LXcdAyhnp4nJfU2YBwBpff/lKTmDDJS+TVfuyFTo5eNh1FACL6Fm1Su94x6X67Te9acGz3x0dnero6NTmLVv0n//gv2hqako//uEP9Y1vfF2HDvKotloQp+F/P/j+92VtNNsY/PwDtW1JV7cy2bL3UoFAWZlXlfuastby7/rTm3uNMTw7B87Nzkxr9y9/EdkHuVo1tGeH6wioQQ0NjXr3e9+rt77t7aqrq2xkzOzsrL79rW/qq3fdpelpdkST7C1/9FZdd8MHXcfQ9PSUfu8/vlkjIyOh3oeffyRB+3mbXUdINGOMei+4SHUNDa6jAPIzxdX39H1kf6nfX9YMAGNM2S0GQBjq6hvUtpRzV0DcrDrnHG276yu69J3vqnjxI0l1dXW69J3v0ra7vqJV55wTYEJELS7t//9w//2hL/75+QfSoa1rOYt/xIbne2Wt0csdAlj2lEEgLJ3dq2RM2XMsAYRk3fr1+uKXvqz1GzYEds31Gzboi1/6statXx/YNRGdNA3/4+cfSAfjeVravcp1DOA51pZ3DKC8DoAKhgwAYalvzKmju8d1DAB6ZqFy2x1fUEdn8M9D7ujs1K2338lOaALFZfc/7OF/3d3d+vwtt4X283/HF76kzVu2BH5tAOXr7F6lugYe/Yf4MEbhFAAuv/xLdVZ6WfmRgPB09ZzDmzDg2MZNm3TbHV9QW1tbaPdYsmSJPnXTzaqvp+UyKdIy/K++vkE3f+azoSz+5+TzeX3ultu0cdOm0O4B4OzqGhrZ/Uf8WF3U19dX8kTKkgsA08tHL5CUqygUEBJjPK04d63rGEBqbdy0SbfcdodaW1tDv1dv7zq97/LLQ78PgvE7b3rzgtPvozQ9PaUf/+iHoV3/fZdfrt7edaFdf05ra6tuue0OigCAQyvW9Mp4HD9F7DTtL+bPL/WbS/4J9qxf9iMGgCi0tHdoSddy1zGA1Fm/YYM+f+vtkSz+5/zR296unlXsviRBXNr/wxz+193drbe89W2hXHs+ra2tuvX2OzkOADjQ3rVCLW3trmMA8/JN6Wv1kgsA1ngUABBbK1b3qrGp2XUMIDWiaPufTzab1aWXvivSe6J8aRn+967L3l3VtP9KcBwAiF5DrlnL19Bxiviy1gZfAJBKvygQNeN56lm3SZ6XcR0FqHlRtv3P5w1vfKOamyn4xVlcdv/DHP7X3NysN7zxjaFc+2w4DgBEx8tktGrdRp48hVgrZ1h/ST/J777xprwkfssg1uobc1q5doMk4zoKULNctP2fKZfL6VUX81CauErL8L+LX/1q5XLuRiNxHACIgtHKtRtUn2tyHQQ4C7Plir47Wkr5zpIKAH6DeVmp3wu4lO/o1Irz4tF2CtQaV23/83nlKykAxFVahv9ddJH7xkiOAwDhWr76POXbw3vCBxCgzOTs1AWlfGNpi3rL4/+QHO1dK7S051zXMYCaEoed/9P1rg9/6joqE5f2/zCH/0nSug3rQ7t2OegEAMLRtepcdSxf6ToGUDLr2ZLW7CXu6put1YQBotbVc646VzIpHAhCnHb+56zq4e93HKVl+J8k9azsCfX65aATAAhW58pztHQlm0lIFiO/pDV7aQUAQwcAkmfZqjVasbqXiQBAFeK28z+npaWkY26IWFx2/8Mc/jenJZ8P9frlohMACILR8nPP07JVq10HAcpmjRdMB0BfX19W0vlVJwIcaF/ere7ejTKGMgBQrvUbNujW2++M1c4/4istw//iLJ/P6/O33k4RAKiAMZ56ejeqY0V8unuAslj70j/8w++e9ZFoZy0APK3mLZLcT/MBKtTW2aXVW7aqPgZDqYCkiGPb/+nGxsZcR8AZ0jL8b87Y6Gjo96gExwGA8tU1NGj15peqtXOp6yhANXKNG/dsONs3nbUAYIqlDRMA4izX3KI151+o1g7e2IGziWvb/+kOHjroOgLOEJf2/7CH/805dPhQ6PeoFMcBgNLl2zu19iUXKtcSr2M9QCWyXuasa/ezFwAYAIgakclk1LNuo1as6VUmc9buGCCV4r7zP2f3rqdcR8Bp0jT8b85T/bsiuU+l6AQAFpfJZrViTa9Wrd8kL5N1HQcIhJU969q9lCGAdACghhi1L+vW2gteobalyyRGBALPScLO/5yf//xB1xFwmrjs/kcx/G/OL37xUCT3qQadAMD8WjuWau1LX672Zd3isyBqij372v2sBQArXRBMGiA+snX1Wrl2g1ZvfgktX4CSs/MvSZOTk3roQQoAcZHW4X8P/uxnmpycjORe1aATAHheriWv1ZsvUM+6TcrW1buOA4ThwrN9w6IFgHf2/cW5RuLQNGpWU75Na7Zs1eotFyi/pN11HMCJjZs26Zbb7kjEzr8k3XfvvRofH3cdA89K2/C/OePj47rv3nsju181Wltbdcttd1AEQGrl8q06Z/0WrdmyVU35ZPyuAyq07LK+m1cs9g2LFgBMoY72f6RCU0urVm04X2u2bNWSruWcBUNqJKntX5IKhYLuuedu1zFwmri0/0c1/O90X7v7q5qdmYn0npXiOADSJpPJaEnXcq05/wKt2XyBWto7XEcColFY/BjA4gUAU3xJsGmAeMu15NV93nptePmr1NO7Ufkl7fI8BgaiNiWp7X/Od771TR0+FN/p62mTxuF/pxsYGNB3v/PtyO9bKY4DoNZ5mYxalnSqp3eT1l94sbrPW69cczIK3EBQjNGia/hFtzmtzGbGYiCNjPHU2tml1s4uWWs1OT6qiVPDmhgd0fTEuAqFWdcRgaokre1fknbvfkpf3rbNdQycJi67/1EO/zvTl7dt06t/7dfU27vOyf3LNXcc4Nqrr9STO3e6jgNUJZutU0NTs5pa29Scb1NjS17GsHpBull5mxf7+qIFACMt+mIgDYwxamppVVPL8wulYqGgmekJzUxOqTA7o2KxIFv0n/mn7ztMW56hPa4TwIWktf1L0vDwsD764Rs1MzPtOgqeldbhf2eamZnWjR+8QV/+yl+po7PTSYZyzR0HuO6aq7TjiSdcx4EDrR3JGfFlPE+ZTFael5GXzSiTrVNDU071DU3KZDmyCZzJyFZaALDG6i83UkMDXiyTzSqXbU18W9m+hx9wHQERS+LO/8jIiK6/9modPHDAdRScJq3D/+YzMDCgD95wXaL+bs0dB6ATIJ161nEMBKhVVjp/sa8vOAPgPf/tM+caqSX4SAAAF5K48z86Oqrrr72aBUoMxaX938Xwv/k8uXOnrr7yAzp16pTrKCVjMCAA1KTWd/fdtHKhLy5YACgan/Z/AKgR6zds0K2335mogX+jo6O0KMdU2of/LWRXf7+uueqKRBUB8vm8Pn/r7RQBAKCGFP3sgmv5hZ8CYAy/CQCgBrD4R9DisvvvcvjfQigCAABcM35xwTf0BQsA9izDAwAA8cfiH0Fj+N/ZUQQAALhkPVN+B4DRwi8CAMQfi3+EgeF/paEIAABwxdiFn+a38BEAifGgAJBQLP4Rlri0/8dl+N9iKAIAABwp7wjAez/2+eWSkvEwWwDAC7D4R1gY/lc+igAAAAeWXd73l0vn+8K8BYCZ7DTv+ACQQCz+Eaa47P7HcfjfYigCAACiVpidv6N/3gKAZzMbw40DAAgai3+EieF/1aEIAACIkp+Zf6j/vAUAY/x14cYBAASJxT/CxvC/6lEEAABEaN4ze/MWAKyd/5sBAPHD4h9RiEv7fxKG/y2GIgAAIAoLrekXegoABQAASAAW/4gCw/+CRREAABA2r/QOAGuszHlhBwIAVIfFP6ISl93/pA3/WwxFAABAmGypBYD/+rHPrzBSS/iRAACVYvGPqDD8LzwUAQAAIWqd71GALyoA1JtiPHr8AADzYvGPKDH8L1wUAQAAYZkt2het7V9UALAZzv8DQFyx+EfU4tL+n/Thf4uhCAAACMN8xwBeXADQi6sEAAD3WPwjagz/iw5FAABA4OZ5EsCLhwDyCEAAiB0W/3AhLrv/tTT8bzEUAQAAASuhAMAjAAEgVlj8wwWG/7lBEQAAEBTrlXQEgAIAAMQFi3+4wvA/dygCAACCYKzWnvlnLygAvKPv1lYjvehRAQCA6LH4h0txaf+v5eF/i6EIAAAIQPflfX1Np//BCwoAGU2viTQOAGBeLP7hEsP/4oEiAACgSmZGLeee/gcvKAB4Bbsq2jwAgDOx+Idrcdn9T8vwv8VQBAAAVMXXOaf/5wsKAEbmHAEAnGHxD9cY/hc/FAEAAJUyeuEm/wsKAL6hAwAAXGHxjzhg+F88UQQAAFTCt2axDgCPAgAAOMDiH3ERl/b/tA7/WwxFAABA+fyFCwBnfhEAED4W/4gLhv/FH0UAAEA5jMzCRwB0xhcBAOFi8Y84icvuP8P/FkcRAABQukWOAFipJ9owAJBeLP4RJwz/SxaKAACA0tj5HwP4nr7PdhipJfpAAJA+LP4RNwz/Sx6KAACAEuTf0Xdr69x/PFcAmFWR9n8AiACLf8RRXNr/Gf5XHooAAICzyRYnnjsG8FwBwPhiACAAhIzFP+KI4X/JRhEAALAYz2Sf2+x/rgDg+aIDAABCxOIfcRWX3X+G/1WOIgAAYEFWL+4AkLErnYQBgBRg8Y+4Yvhf7aAIAACYj7X2uWH/pz8FYIWDLABQ81j8I84Y/ldbKAIAAM5kPS2f+/fnCgBWWuYmDgDULhb/iLu4tP8z/C84FAEAAKcz9vm1/mlHAAwFAAAIEIt/xB3D/2oXRQAAwGnmKQDY59sCAADVYfGPJIjL7j/D/8JBEQAA8Kx5CgAcAQCAQLD4RxIw/C8dKAIAAHRmAeAPr/9sTlLeWRwAqBEs/pEUDP9LD4oAAJB6S66++tYG6dkCQGuTz+4/AFSJxT+SJC7t/wz/iwZFAABINTPZOdklSVlJKnq0/wPlKBRmNTs1qenJSRVnZ1UsFuQXi/L9oqzvu44HB1j8I0kY/pdOc0WAJL1XzRUBeK8K1qGndrqOUDLjefK8jLxMRplsVplsnRpyOdU3NimTzbqOByRGUWaZpINZSTLWX26NcRwJiCdrfU2OjWpi5JTGR4Y1PTmhYqHgOhZihMU/kiYuu/8M/4seRQBI0sjJ464jBCKTzaoh16ym1jY1ty5RriUvw5oGmJctPLPp70mSNXQAAKfzfV8jx49qf//j6n/4Z9q34zEdO7RfE6MjLP7xAiz+kTQM/wPHAVArioWCJkZP6fih/dq3Y7v6H/5XHeh/QqdOHJO1dGQCp5tb8889BYACACBpcnREA3t2adcjD+rQ0/0aHx6ST0s/FsDiH0nE8D9IFAFQm3zf19jwSR3e/aT6H3lIA3t2aXKMGSOAJHmiAwB4zsTYiA72P669O7Zr+NigfL/oOhJijsU/kiou7f8M/3OPIgBqmV8saPjYoPY+sV17d2zX2NBJSXQcIb2sMc8XAIxvOtzGAdwYHxnWnsf/Tfue2K7R4SHXcZAQLP6RVAz/w5koAiANJkdHdGDXE9r7+HZNjCTnZx0IlK8Oae4IgNESp2GAiBVmZ3T46X7t3/m4psbHXMdBgrD4R5LFZfef4X/xQhEAaTE5Pqp9Ox/Twf7HNTsz4zoOEK1n1/xzMwAoACAlrIYGB7R7+yM6dfyoaAVDOVj8I8kY/ofFUARAmowOD2nPYw9r6OiA+CyI9LAUAJAuxWJRh556Ukf27ZZfZJI/ysPiH0nH8D+cDUUApEmxWNSRvbt1oH8nT3hCShgKAEiPyfFR7fnVozXz3FtEi8U/akFc2v8Z/hdvFAGQNmPDJ7TnV4/ytACkAQUApMOp40e174ntmp2ech0FCcTiH7WA4X8oB0UApM3szLT27XhMp04ccx0FCNMzBYC+vj5PUt5xGCAUQ4OHNfB0P2dNUREW/6gVcdn9Z/hfclAEQNpYa3V4d79ODBxyHQUIyxLJGm+v2lr1fCcAUDOOHtirI/ueZrQLKsLiH7WC4X+oFEUApI/V0QN7dOzAPtdBgDBk3n3jzS2eNEX7P2rOsYP7dGLgoOsYSCgW/6glDP9DNSgCII2ODxzQ8UP7XccAAmfrsks8KUMBADVl6OiAjh8+4DoGEorFP2pNXNr/Gf6XXBQBkEbHDu3X0OBh1zGAQFnPLPFUMBQAUDNGTh7X4N7drmMgoVj8o9Yw/A9BoQiANDqyb49Gh3iCFGqH5/ttnvGUnE+6wCKmJyeeGfjnOggSicU/alFcdv8Z/lcbKAIgfawO796lmclJ10GAQFjjL/GsTKvrIEC1rPV1aPeT8n3fdRQkEIt/1CKG/yEMFAGQNr5f1KHdO/iMiZrge16bZ3y/xXUQoFpH9u7W9MS46xhIIBb/qFUM/0NYKAIgbaYmJjS4/2nXMYDqWTV71pic6xxANUaHTmj42KDrGEggFv+oZXFp/2f4X22iCIC0GT56RKPDQ65jAFUxVjnPyDS5DgJUylpfg/v3uI6BBGLxj1rG8D9EgSIA0mZw71McBUCiGdkmz8qnAwCJdfzgAc1OT7mOgYRh8Y9aF5fdf4b/1T6KAEiT2ZlpnRg46DoGUDHrKedZIwoASKSZqUmdOMKbMMrD4h+1juF/iBpFAKTJicMHNTPF5hOSyXIEAEl2YuAgHyxRFhb/SAOG/8EFigBIC2t9ugCQWEZq8uSLAgASZ3Z6WqeOH3UdAwnC4h9pEZf2f4b/pQ9FAKTFqeODmp2Zdh0DqIBp4ggAEondf5SDxT/SguF/cI0iANLAWksXAJLpmSMAdAAgWYqFgoaP89g/lIbFP9IkLrv/DP9LN4oASIPho4PyiwXXMYDyGNvkGRk6AJAoIyePy/IIFpSAxT/ShOF/iBOKAKh11voaOXHcdQygLFbKeVaWDgAkyil2/1GC9Rs26PY7v8jiH6nB8D/ETVKLALfefidFAJSEeVRIGmPU5MkyAwDJMTM1qcmxMdcxEHPnv+Ql2nbXV5XP511HKRmLf1QrLu3/DP/D6ZJYBGhubtYXvvRlbX3Zy1xHQcxNjI1qdppHAiI5jFXOk5H77QKgRCMnj0uirRQLe80ll+iL2+5SQ0OD6yglY/GPajH8D3GWxCJAfX29bv/Cl/Sbr32t6yiINfvsZ1MgGayU8ySbdR0EKNXESHI+PCB6r3/DG/QXn/6MMpmM6yglGxkZ0TVXXcHiH1WJy+4/w/+wkF39/brumqsS1R2S8Tz9+adu0uvf8AbXURBj4yPDriMA5ch4kknOJ2WkmrW+JkaT88EB0dq6dav+7M/+pzxjXEcp2ejoqK6/9mo9uXOn6yhIsHw+r9e9/rdcx5DE8D8s7smdO3X1lR9IVCeAZ4z+x5/9uS561atcR0FMTY6OyFqGUyMpbMazEgUAJMLk2ChvsJhXS0urPn/7HTKe5zpKydj5R1D+0+/+XiyOvDD8D6VIYieA5xl9+jOfVUtLq+soiCHf95lPhQQxGc9QAEBCTLL7jwV8/tZb1FDvfgFUqpGREV179ZXs/CMQ//Wd73QdQRLD/1C6J3fu1LVXX5mon5eG+gZ9/tZbXMdATE2MJaerBelmnzkCQAEAyTA1Nek6AmJo69at2nz+S1zHKBlt/wjS6173ei1Z0u46hiSG/6E8STwOsOX8l+jlF13kOgZiaGaSz6hIBiNlKQAgMWYnJ1xHQAx99GMfV1JO/dP2j6C9/4orXEeQxPA/VCaJxwFu/NBHXEdADM2wSYXkoAMAycGbK87U1dWlc9esdh2jJLT9I2jLly/XOeec4zqGJIb/oXJJOw5w7prV6urqch0DMcNnVCQIBQAkQ3F2VsVi0XUMxMzb3vEO1xFKQts/wvC+y98vxaD/heF/qFbSjgO89e1vdx0BMVMsFFQozLqOAZSCAgCSocibKubx6ot/zXWEs6LtH2G55Dd+03UESQz/QzCSdBzg3736111HQAz5hYLrCEApmAGAZCj67P7jxZZ1L3cdYVHs/CMsW7e+TPnWeDySjOF/CEpSOgGWrYj37x644dOpimTIeJYCABKAN1XMJ9fQ6DrCgtj5R5h+9/d/33UESdLTT+/W9u2/dB0DNSQJnQC5xvj+7oE7PptVSIaMZygAIAEoAGBenuc6wbwmJibY+Udo8vm8Xvu617uOIUn62x/8wHUE1KC5ToCxsTHXUeZljPvZG4gfv8gRACRCJp6fngEAwLx+501vVmMMdiAZ/oewWfFkCQAImmcltlYRe16GRhXMw/ddJ5hXU1OTPnfLbdq4aZPrKKhBcWn/Z/gfwrJx0ybddscXlG/Ju44yLx55ifl4mazrCEApip6hAIAEoACA+UxOT7mOsKDW1lbdevud2rxli+soqCFbt75Ma9f2uo4hieF/CMf6DRv0+VtvV2tMhlzOZ3Iqvr974I7n8VkViVD0RAEACZDhTRXzODow6DrCovL5PJ0ACFRcdv9HRkYY/ofAze38t7W1uY6yqKNH4v27B26wWYWEoACAZMhk61xHQAz97MH/6zrCWdEJgKDEafjfA//8T64joMYkYed/zr/+7F9cR0AMeVmOACARChQAkAiZujpleGPFGb71jW+4jlASOgEQhLgM/5Oku768zXUE1JCk7PzP+fY3v+k6AmLGy2SVZbMKyUAHAJKjviHnOgJi5tixY9q/d5/rGCVpbW3VLbfdQREAFYtL+//B/Qc0OEgLNIKxcdMm3XLbHYnY+Zek/Xv36dixY65jIGYaGptcRwBKRQEAyVGXowCAF/vUJz8hJWQiM8cBUKk4Df/74hfvdB0BNSJJbf9z/uKmT7qOgBiqz8WjOwsoAQUAJEdjIwUAvNgvf/lLPfHE465jlIzjAKhEXHb/T50a1j/+w/2uY6AGJK3tX5KeePxX+rdHHnEdAzFUzyYVEsJKBc9SAEBC5PLJ+ZCAaF13zbWanpl2HaNkHAdAOc46/C/C48H+/wAAIABJREFUBph77v4az0BH1ZLW9i9J0zPTuu6aa13HQEw18RkVCWGkomcoACAhci15eZ7nOgZiaGxsRNdddaWs77uOUjKOA6BUZx3+Z6LJMTMzrb/7338bzc1Qs5LY9u/7Vh/64A0aGxtxHQUx5Hmecs151zGAEtmiJ1kKAEgEY4xyLcn5wIBo/fKXv9R//+8fD60IEMaeJ8cBUIq4tP/f/5OfaGSEBRAqF2bbf1h9Kdb31fff/1S/eOihkO6ApGvKt8mYiCqxQNVM0ZPMrOsYQKmaEnRWENH7yd//vW688U/kF4MvAoT1q51OACwmTsP//uav/9p1BCRY2Dv/YbxH+76vj33sI/rJ3/99CFdHrWhqXeI6AlCOoier5BycReq1dXQpsn5XJNK/PPCALn/fezQ9nZy3tnw+r8/fejtFALxIXHb/9+7do8ce2+46BhJq/YYNuvX2OxM18G9mZkZX/PH79c//+I+uoyDWjPLtna5DACUz0qQno0nXQYBS1TU0KtfCOSss7onHf6XL3/tujY6Ouo5SMooAONNZh/9F6Aff/z7D/1CRJC7+x8bH9YH3v0/bf/lvrqMg5pryedUvNqMFiBlrNOkZmQnXQYBytC3tch0BCbCrv19XXfHHOnXqlOsoJaMIgNOddfhfRKanp/TjH/3QdQwkUBIX/6Ojo7r2qiu044knXEdBArR1LnMdASiLtZrwrCwdAEiUts4uGcPTAHB2u/r7dc1VV1AEQCLFpf3/H+6/n+F/KFtSF//XXXMVi3+UxPM85TuWuo4BlMVIk56V6ABAoniZrNqXrXAdAwlBEQBJxPA/JBmLf6TBkq5uZbJZ1zGA8lgz4XkUAJBAHd09PHIFJaMIgKSJy+4/w/9QLhb/SANjjDpWrHQdAyiblZ3wLEMAkUB19Q1qW8q5K5SOIgCSguF/SCoW/0iLtq7lqmtocB0DKJsxmvSsLB0ASKTO7lXMAkBZKAIgCRj+hyRi8Y+0MJ6npd2rXMcAKmKlCc9YOgCQTPWNOXV097iOgYShCIC4i0v7P8P/UCoW/0iTzu5VqmtwX6QFKmGeeQygRwEAidXVcw5vwigbRQDEFcP/kDQs/pEmdQ2N7P4j0YzPEQAknDGeVpy71nUMJBBFAMRRXHb/Gf6HUrD4R9qsWNMr43H8FMllZSY8Yy0dAEi0lvYOLela7joGEogiAOKE4X9IEhb/SJv2rhVqaWt3HQOoijWa9KznjbkOAlRrxepeNTY1u46BBKIIgLhg+B+SgsU/0qYh16zla+g4RQ0wGvesb5LzqRdYgPE89azbJM/LuI6CBKIIgDiIS/s/w/+wGBb/SBsvk9GqdRt58hRqhB32ZO2w6xhAEOobc1q5doMk4zoKEogiAFxi+B+SgMU/0sdo5doNqs81uQ4CBMPaYS/j0QGA2pHv6NSK8+LxIRrJQxEArsRl95/hf1gIi3+k0fLV5ynf3uk6BhAgf9gzPh0AqC3tXSu0tOdc1zGQUBQBEDWG/yHuWPwjjbpWnauO5StdxwACZf36YS9TKFAAQM3p6jlXnSt5TisqQxEAUWL4H+KMxT/SqHPlOVq6ks0k1J6WuoZT3rabPjwiqeg6DBC0ZavWaMXqXiYCoCIUARCVuLT/M/wPZ2Lxj/QxWn7ueVq2arXrIEDgrFS4s++KcU8yVhK/8VGT2pd3q7t3o4yhDIDyUQRA2Bj+h7hi8Y+0McZTT+9GdazocR0FCMuwZOyzz7NgECBqV1tnl1Zv2ar6GLTYInkoAiBMcdn9Z/gfTsfiH2lT19Cg1ZtfqtbOpa6jAGEalqRnCgA8ChA1LtfcojXnX6jWDt7YUT6KAAgDw/8QRyz+kTb59k6tfcmFyrXkXUcBwmVOLwA8+x9ALctkMupZt1Er1vQqk8m4joOEoQiAoDH8D3HD4h9pkslmtWJNr1at3yQvk3UdBwifPb0AIDoAkBZG7cu6tfaCV6ht6TKJEYEoA0UABCku7f8M/4PE4h/p0tqxVGtf+nK1L+sWnwWRIqcXADwKAEiVbF29Vq7doNWbX0LLF8pCEQBBYPgf4oTFP9Ii15LX6s0XqGfdJmXr6l3HASJmny8AGOOfcBsGcKMp36Y1W7Zq9ZYLlF/S7joOEoIiAKoVl91/hv+BxT/SIJdv1Tnrt2jNlq1qyre6jgM4YYw5IT1bALC+OeY2DuBWU0urVm04X2u2bNWSruWcBcNZUQRApRj+h7hg8Y9alslktKRrudacf4HWbL5ALe0driMBTs2t+Z/pAPB01G0cIB5yLXl1n7deG17+KvX0blR+Sbs8j4GBmB9FAFSC4X+IAxb/qEVeJqOWJZ3q6d2k9RderO7z1ivXzI4/ID2/5s9KkvXtoAwDMIA5xnhq7exSa2eXrLWaHB/VxKlhTYyOaHpiXIXCrOuIiIm5IkCSPkjPFQH4IO1GXNr/Gf6XXiz+USuy2To1NDWrqbVNzfk2NbbkZVjTAPMyOq0A4Fl71OcvCzAvY4yaWlrV1PJ8BblYKGhmekIzk1MqzM6oWCzIFv1n/un7DtOWZ2iP6wS1gSIASsXwP7jG4h/SM1Pwk8J4njKZrDwvIy+bUSZbp4amnOobmpTJcmQTKJX1/EHp2QJAoc4e9YpuAwFJkslmlcu2Jr6tbN/DD7iOUDMoAqAUcdn9Z/hfOrH4x5yedZtcRwAQMU/26DP/lORpihkAAFAlZgJgMQz/g0ss/gEg1Wz28JLnhwDe3dc3JYmDgABQJYoAWAjD/+AKi38ASL2hbdvePys9WwB41qCjMABQUygCYD5xaf9n+F+6sPgHAEjPP/XPm+8PAQDVoQiA0zH8Dy6w+AcASJLMPAUAQwEAAAJFEQBz4rL7z/C/9GDxDwCYY+08BQBrKAAAQNAoAoDhf4gai38AwOmMMc8d93++A8BaZgAAQAgoAqQbw/8QJRb/AIAX8e2xuX99rgDgyzvkJg0A1D6KAOkVl/Z/hv/VPhb/AID5WE8H5/79tA4A/+D83w4ACAJFgPRh+B+iwuIfALAg3x6Y+9fnnwJgsgfm/WYAQGAoAqRLXHb/Gf5X21j8AwAW42ueAsDM7DQdAAAQAYoA6cDwP0SBxT8A4GzqZuY5AvDNv/jokJXG3EQCgHShCFD7GP6HsLH4BwCUYPirN394dO4/vNO/YiS6AAAgIhQBaltc2v8Z/lebWPwDAEph7QvX+C8oAFgKAAAQKYoAtYnhfwgTi38AQKk8oxfM+ntBAUBWDAIEgIhRBKg9cdn9Z/hf7WHxDwAoj124AGA8OgAAwAWKALWD4X8IC4t/AEC5rDWLHAE444sAgOhQBKgNDP9DGFj8AwAqYhbpALCGIwAA4BJFgOSLS/s/w/9qB4t/AEClrMksXADwrEcHAAA4RhEguRj+h6Cx+AcAVCPjFxY+AjCbye6LNg4AYD4UAZIpLrv/DP+rDSz+AQBVstns5MIdAN/ou2bESsejzQQAmA9FgGRh+B+CxOIfABCAgW19fROn/4F35ncYaXd0eQAAi6EIkBwM/0NQWPwDAALyorX9iwoAsvapSKIAAEpCESAZ4tL+z/C/ZGPxDwAIjjl7AcAYOgAAIG4oAsQbw/8QBBb/AIAgzdfd/6ICgM8RAACIJYoA8RWX3X+G/yUXi38AQODm2dx/8REACgAAEFsUAeKH4X+oFot/AEAYisViCUcAMhQAACDOKALEC8P/UA0W/wCA0PglFADu7rvxiJXGokkEAKgERYD4iEv7P8P/kofFPwAgRCP3fOpjJ878w/mOAMjI7gk/DwCgGhQB3GP4HyrF4h8AECqreZ/uN28BQMwBAIBEoAjgVlx2/xn+lyws/gEAoTMvfgSgtEABwMrMWy0AAMQPRQA3GP6HSrD4BwBEpPQCgNH81QIAQDxRBIgew/9QLhb/AIComHIKALJ2Z6hpAACBowgQrbi0/zP8LxlY/AMAomR8zbumn7cAkPXrdoQbBwAQBooA0WD4H8rB4h8AELWCPzPvmn7eAsBdn7xuUNKLHhkAAIg/igDhi8vuP8P/4o/FPwAgenZwvkcASgs/BUDS/C0DAID4owgQHob/oVQs/gEAbpgFO/oXLgBY8c4PAAlGESAcDP9DKVj8AwAcWvCNfMECgFmkagAASAaKAMGLS/s/w//ii8U/AMAlI5XfAWDlUwAAgBpAESA4DP/D2bD4BwC45huv/AJAxi78IgBAslAECEZcdv8Z/hdPLP4BAHFQLHjlHwH4yp9/cL+VxsKJBACI2q7+fl13zVWJahvP5/P63C23aeOmTa6jMPwPi9q4aZNuu+MLiVr8j4yM6JqrrmDxDwC1Zfh/ffL6gYW+mF34dcbKfHqnrC4KIxWQZIXCrGanJjU9Oani7KyKxYL8YlG+X5T1fdfxgAU9uXOnrr7yA4napWxtbdXnbrlNl7/33Tp44ICzHAz/w0K6u7v1mc9+Xq2tra6jlGx0dFTXX3u1ntzJQ5/S6NBTyfn/bjxPnpeRl8kok80qk61TQy6n+sYmZbKLLGWAlFrs/L+0aAFAMr52yFAAQLpZ62tybFQTI6c0PjKs6ckJFQsF17GAis11Atxy2x2JWbAsWbJEn7rpZr3nsss0MzPtJENc2v8Z/hcv9fUNuvkzn1VHZ6frKCUbGRnRtVdfyeI/xUZOHncdIRCZbFYNuWY1tbapuXWJci15GWNcxwKcsmd5mt/CjwHU2asHQK3yfV8jx49qf//j6n/4Z9q34zEdO7RfE6MjLP5RE57cuVPXXn1lohaSvb3r9L7LL3dyb4b/YSHvu/xy9faucx2jZCz+UUuKhYImRk/p+KH92rdju/of/lcd6H9Cp04ck7V0ZCKd7Fme5rdoAUCyjwUZBoi7ydERDezZpV2PPKhDT/drfHhIPi39qFFzxwGSNBjwj972dvWsWhX5feOy+8/wv3jp7u7WW976NtcxSkbbP2qd7/saGz6pw7ufVP8jD2lgzy5NjiWn0A0Ew190Db9oASCTtf8WbBggnibGRnSw/3Ht3bFdw8cG5ftF15GASCRtMGA2m9Wll74r0nsy/A8Leddl71ZdXZ3rGCVh4B/Sxi8WNHxsUHuf2K69O7ZrbOikJN4/Ufvq/PpfLvb1RQsAd/V9+KCVauOQEDCP8ZFh7Xn837Tvie0aHR5yHQdwImnHAd7wxjequbk5svsx/A/zaW5u1hve+EbXMUpC2z/SbnJ0RAd2PaG9j2/XxEhyut6ACgzc9cnrBhf7hrMcAZAk0QWAmlOYndHhp/u1f+fjmhrnaZdAko4D5HI5veriiyO7X1za/xn+Fy8Xv/rVyuVyrmOcFW3/wPMmx0e1b+djOtj/uGZnZlzHAQJnSli7UwBAylgNDQ5o9/ZHdOr4UdEKBjwvSccBXvnKaAoADP/DQi666FWuI5wVbf/A/EaHh7TnsYc1dHRAfBZELfFNAAUAT1r0DAGQFMViUYeeelJH9u2WX2SSPzCfpHQC9K6PZup6XHb/Gf4XP+s2rHcdYVHs/AOLKxaLOrJ3tw707+QJT6gZnuxZ1+5nLwBk6ABA8k2Oj2rPrx6tmefeAmFKQifAqp7wnwTA8D8spmdlj+sIC2LnHyjd2PAJ7fnVozwtADXB+Gcf4n/WAsA5Gt8paSqQRIADp44f1b4ntmt2mh9joFRx7wRoaWkJ/R4M/8NiWvJ51xHmxc4/UL7ZmWnt2/GYTp045joKUI2J0SfPe+ps33TWAkBfX1/BGv0qmExAtIYGD2vg6X52zoAK7Orv1zVXXRHbIkDY4tL+z/A/lGp0dFTXXXMVO/9ABay1Ory7XycGDrmOAlTG2O3f+95bzvos81KGAEr27K0EQNwcPbBXR/Y9zWgXoApxPQ4wNhbu0zsY/oezGRsddR3hBWj7B4JgdfTAHh07sM91EKB8trSj+yUVADwZBgEiUY4d3KcTAwddxwBqQhyPAxw8FO7f77js/jP8L74OHY7PLiFt/0Cwjg8c0PFD+13HAMrklbRmL6kAYHxDBwASY+jogI4fPuA6BlBT4tYJsHvXWY+4VYzhfyjFU/27XEeQxM4/EJZjh/ZraPCw6xhA6Upcs5d2BGC2+EtJfjV5gCiMnDyuwb27XccAalKcOgF+/vMHQ7s2w/9Qil/84iHXEdj5B0J2ZN8ejQ7xBCkkQrE47T9WyjeWVAD46s0fHpXMjuoyAeGanpx4ZuCf6yBADYtDJ8Dk5KQeejC8AkBc2v8Z/hdvD/7sZ5qcnHR2f3b+gShYHd69SzMO/64DJfrV1//yQ+OlfGNpHQDPCO/TFlAla30d2v2kfJ9GFSBsT+7cqWuvvtLZ4vS+e+/V+HhJv+PKxvA/lGp8fFz33Xuvk3uPjIzo2quvZOcfiIDvF3Vo9w4+YyLerEpuSyunAPDzCqIAkTiyd7emJ8JZEAB4MVfHAQqFgu655+7Qrh+X3X+G/yXD1+7+qmZnZiK9J23/QPSmJiY0uP9p1zGABRljgi8A+DJ0ACCWRodOaPjYoOsYQOq4OA7wnW99U4cPhTN9neF/KNfAwIC++51vR3Y/2v4Bd4aPHtHo8JDrGMC8rLyS1+olFwDWZkYfk8QWK2LFWl+D+/e4jgGkVpTHAXbvfkpf3rYttOsz/A+V+PK2bdq9O7ynUsyh7R9wb3DvUxwFQByNr8mMlDyvr+QCQF9fX0ESjwNErBw/eECz01OuYwCpFsVxgOHhYX30wzdqZmY6tHvEpf2f4X/JMjMzrRs/eINOnjgR2j1o+wfiYXZmWicGDrqOAZzpF8+u1UtSzgwAWWPdP/MGeNbM1KROHOFNGIiDXf39uvrKD4SyCDp54oSuueoKHTxwIPBrz2H4H6oxMDCg6669OrSf/ys/8H7a/oGYOHH4oGam2HxCfJgyj+qXVQAwtvThAkDYTgwc5IwsECNP7dqlP37/+7Srvz+wa+7q79cfv/99emrXrsCuOZ+47P4z/C+5kvzzD6B01vp0ASBWfOOXtUYvqwDgZbIUABALs9PTOnX8qOsYAM5w8MABXf7e9+jr93xNs7OzFV9ndnZWX7/na7r8ve8JdedfYvgfgpPEn38A5Tt1fFCzIR5JA8pR59myOgBMuTe47OOfHpS0rNzXAUE6sne3ho4OuI6ReEN7Sp4XApStZ9UqveMdl+q33/SmkofrTU1N6cc//KG+8Y2v69DBaHZY3vJHb9V1N3wwknstZnp6Sr/3H9/M+f8akZSff6RT+3mbXUdIvPbl3VqxOh5Hx5BqA3d/4kMry3lBtoKb/FzSmyt4HRCIYqGg4eM89g+Iu0MHD+rmmz6lW2/5nF5zySW68OWv0KZNm7V8xXK1t3dIkoaGTmrwyKB27tyhRx95WD994AFNRXy2Mi7t/wz/qy1J+fkHUJnho4Natmq1vEwlyykgKOXt/ksVFACszENGlgIAnBk5eVyWR7AAiTE1NaWf3HeffnLffa6jvAjD/xC2OP/8A6ictb5GThzXkmUrXEdBilUyo6+sGQCS5Fn703JfAwTpFLv/AAISl91/hv8BQPIwjwquGWseKPc1ZRcA6rLjP5M0U+7rgCDMTE1qcmzMdQwANaC5uVmvez3D/wAAlZkYG9XsNMd24My0Xzf2i3JfVHYBYFtf34SkR8t9HRCEkZPHJfEhGUD1Ln71q9XQUNpwtjBNT0/pxz/6oesYAICy2Wc/mwLRs0Y/v7uvr+wKVNkFAEmyUtmtBkAQJkZOuY4AoEZcdNGrXEeQxPA/AEiy8ZFh1xGQXhWtySsqAMh6FAAQOWt9TYzyIRlAMNZtWO86giSG/wFAkk2OjshahlMjelbln/+XKiwAZLPmp5L4SUekJsdGeYMFEJielT2uI+jpp3dr+/Zfuo4BAKiQ7/vMp4ILvudl/rWSF1ZUAPhK3w0nJbOjktcClZpk9x9AgFryedcR9Lc/+IHrCACAKk2McUQVEbPafnff9RWdP6nsCIAkyecYACI1NTXpOgIABIbhfwBQG2Ym+YyKiHmVtf9LVRUAKr8pUInZyQnXEQDUkLHRUaf3Z/gfANSGGTapELnKN+MrLgBkM/7/qfS1QCV4cwUQpEOHDzm9P8P/AKA28BkVUfM8+y8Vv7bSF97V9+GDkvZV+nqgHMXZWRWLRdcxANSQp/p3Obs3w/8AoHYUCwUVCrOuYyAlrPTUV/s+fLjS11dxBECSFV0AiESRN1UAAfvFLx5ydm+G/wFAbfELBdcRkBZWVR3Fr64AYOw/VfV6oERFn91/AMF68Gc/06SDwU1TU1P60Q//LvL7AgDC49Opioh4Rv9Q1eurebGf8X9SzeuBUvGmCiBo4+Pjuu/eeyO/79//+McadTyAEAAQLJ/NKkSk6Gf+sZrXV1UAuKfvI/sluTtEidSgAAAgDF+7+6uanZmJ7H6FQkH33HN3ZPcDAETDL3IEAFEwj9/z5zdUNcW4uiMAkqwRXQAAgEQaGBjQd7/z7cju951vfVOHD7l9+gAAAEgoU30HftUFAMneX/01gMV5mYzrCABq1Je3bdPu3U+Ffp/du5/Sl7dtC/0+AIDoeZms6whIBVP12rvqAoDx6u6XRH82QkUBAEBYZmamdeMHb9DJEydCu8fw8LA++uEbNTMzHdo9AADueB6fVREuKxXqp4tVP4Wv6gLA3X3XD1ujR6u9DrCYDG+qAEI0MDCga666UsePHwv82kMnT+raq6/UwQMHAr82ACAe2KxC2IzRQ9tu+sipaq8TwBEAyUgcA0CoMtk61xEA1Linn96tK/74/drV3x/YNXf19+v9l7830GsCAOLHy3IEAOEy1gYyey+QAkAQZxGAxWTq6pThjRVAyA4eOKDL3/seff2er2l2drbi68zOzurr93xNl7/3Pez8A0CN8zJZZdmsQsh83wtkzR1MAcAbe0DSZCDXAhZQ35BzHQFACkxPT+kLd9yut7/1LfrB97+vqampkl87NTWlH3z/+3r7W9+iL9xxu6anS38tACCZGhqbXEdA7ZtoHal/MIgLmSAuIkmXffzT90t6XVDXA8506Ol+jRw/6jpGTRnas8N1BCD2Ghsb9ZpLLtGFL3+FNm3arOUrlqu9vUOSNDR0UoNHBrVz5w49+sjD+ukDD5RVMAAAF9rP2+w6Qk1pW7pMK9ducB0DNcxIP/qrT3zoTUFcK7CeamP1E2soACA8jY05jbgOASB1pqam9JP77tNP7rvPdRQAQAzV5+hSRbh8G9yR+4BmAEjK2nsDuxYwj1y+zXUEAAAA4AWa+IyKsJnCj4O6VGAFgL/q+9Cjkg4FdT3gTLmWvDwvuJoVAAAAUA3P85RrzruOgdp24Guf+MjjQV0swNWUsbIKrDIBnMkYo1xLq+sYAAAAgKRndv+NCWysGvAi1uh/B3m9gLdTzQ+DvR7wQk1ttFgBAAAgHppal7iOgBrn+TbQNXagBQBvpnifpJkgrwmcrq2jSwE+vAIAAACokFG+vdN1CNS26Vy2+Z+CvGCgBYCv3vzhUUk/DfKawOnqGhqVa+GcFQAAANxqyudV39joOgZq2z/e2XflWJAXDHyimrUcA0C42pZ2uY4AAACAlGvrXOY6AmqclX4U9DUDLwCYrP4u6GsCp2vr7JIxPA0AAAAAbniep3zHUtcxUOOymUzgm+uBr6Lu7vuTnZJ2B31dYI6Xyap92QrXMQAAAJBSS7q6lclmXcdAbXvyK303PBX0RUPZRg2jVQE4XUd3D49cAQAAQOSMMepYsdJ1DNQ4a4Kd/j8nnAKAYQ4AwlVX36C2pZy7AgAAQLTauparrqHBdQzUOCMvlE31UAoAnjf2j5Imwrg2MKezexWzAAAAABAZ43la2r3KdQzUOCuN5Yfq/08Y1w5l9XR3X9+UZP8+jGsDc+obc+ro7nEdAwAAACnR2b1KdQ08+g+h+/Ftt10zHcaFQ9s+tdJfh3VtYE5Xzzm8CQMAACB0dQ2N7P4jEibEtXRoBQCTqftbSTNhXR+QJGM8rTh3resYAAAAqHEr1vTKeBw/RehmlcmGNlMvtJ/gu/uuH7ZSKOcWgNO1tHdoSddy1zEAAABQo9q7Vqilrd11DKTD/Xf3XT8c1sVDLWEZGY4BIBIrVveqsanZdQwAAADUmIZcs5avoeMU0bAhr6FDLQB4meIPJPlh3gOQnpnI2rNukzwv4zoKAAAAaoSXyWjVuo08eQpR8U3G/9swbxDqT/JX+z58WMY+FOY9gDn1jTmtXLtBknEdBQAAAIlntHLtBtXnmlwHQXr8y919Nx4J8wahl7Ks5WkAiE6+o1Mrzut1HQMAAAAJt3z1ecq3d7qOgRQxNvwj9KEXALKZ7PfDvgdwuvauFVrac67rGAAAAEiorlXnqmP5StcxkDImm/mbsO8RegHgK303PGWtfhX2fYDTdfWcq86VPKcVAAAA5elceY6WrmQzCdEy0qNf7bv+6bDvE8k0C+NxDADRW7ZqjVas7mUiAAAAAEpgtPzc87Rs1WrXQZBCUR2dj6QA4FuPAgCcaF/ere7ejTKGMgAAAADmZ4ynnt6N6ljR4zoK0spkfhDFbSIpANzziQ8+Kqk/insBZ2rr7NLqLVtV39joOgoAAABipq6hQas3v1StnUtdR0F67bz7Ezc8FsWNonugpdF3IrsXcIZcc4vWnH+hWjt4YwcAAMAz8u2dWvuSC5VrybuOghSzMt+K6l7RFQA8883I7gXMI5PJqGfdRq1Y06tMJuM6DgAAABzJZLNasaZXq9ZvkpfJuo6DlPNt8XtR3SuyAsDdfX+yU7KRtDUACzNqX9attRe8Qm1Ll0mMCAQAAEiV1o6lWvvSl6t9Wbf4LAjnrB75+v/88I6obhdpucta8x1j9NIo7wnMJ1tXr5VrN2hJ13IdPbBXk2OjriMBAAAgRLmWvJadc56a8q2uowDPscZGelQ+0gJAJpv9ll8sfEKU2hATTfk2rdmyVRNjIzp5+IBGh4dcRwIAAECAcvlWLV2xSi3tHa4wUWDOAAAgAElEQVSjAGeyJlP8bpQ3jHwhftnHP/2QpFdGfV+gFJNjoxo+dkQjJ0/ILxZcxwnd0J7Iuo0AAEBMtJ+32XWE0GUyGeU7lmrJsuXKNbPjj5gy+r93/9mHfj3KW7qYePFtUQBATOVa8sq15LViTa9GT57QyImjGh8Zke8XXUcDAADAIrxMRk35JWrr7FK+vUPGi27eOVAR33476ltGXgDwMv63/aL3aUX5BAKgTMZ4au3sUmtnl6y1mhwf1cSpYU2Mjmh6YlyFwqzriAAAAKmWzdapoalZTa1tas63qbElL2M4aYzE8L2s/f+ivqmTvyGX/T+f/mdZ/YaLewNBKBYKmpme0MzklAqzMyoWC7JF/5l/+r7reCXb9/ADriMAAICIrX7FJa4jlMx4njKZrDwvIy+bUSZbp4amnOobmpTJ8vg+JJm9/+5P3PhbUd/Vzd8aa74jWQoASKxMNqtctjXxZ8r2P/IvsjY5BQsAAFAd43nqWbfJdQwAxkQ6/X+Okzb8Ysb+v1aq/QlrQMxxNg4AgHTxvIzrCACkGX929vsubuzk0//X+z501Ej3urg3gOdRAAAAIF343Q+4Z6S/u+dTHzvh4t7u3gGM/ZqzewOQ9My0XAAAkB787gdiwMjZWthZAWDcm/gbSU6qHgCeka2rdx0BAABEyMvWuY4ApN2JMW/8R65u7qwA8L2+vhlr9F1X9wcgZesbXEcAAAARqqtvdB0BSDdj/9f3+vpmXN3e6SEgz7prfQAgZRv4EAAAQJrwux9wy7cZp2tgpwWAv/rEhx400g6XGYA0owMAAIB0qW+kAAC4Yx6/5xMffNRlAudjQK3sPa4zAGlV15BzHQEAAEQoQ/EfcMZa/ZXrDM4LAL6f/bqkouscQBo1NDW7jgAAACLU2Jx3HQFIJSsVTNb/husczgsA9/z5DYck+w+ucwBp1NjChwAAANKkgQIA4ISR7r2778YjrnM4LwBIkjUewwABBxqa+BAAAECaNDS1uI4ApJOxsVjzxqIAMDHqfV/SsOscQNo0tOQlGdcxAABAJAzdf4AbQ/mhxr91HUKKSQHge5+7YVJW33OdA0ibTLZODc3MAQAAIA0amlvkZbKuYwBp9K3bbrtm2nUIKSYFAEmSMV92HQFIo6a2DtcRAABABJqX8DsfcMGXd5frDHNiUwC4+xN/8nNZPeI6B5A2zRQAAABIheYlna4jAGn04D2f+OCjrkPMiU0BQBJdAIADubZ21xEAAEAEcq38zgeiZo1itcaNVQGgKZP7X5JGXecA0qSlo8t1BAAAEIF85zLXEYC0Gc1M+d91HeJ0sSoA3Pn/t3fnUXbUZf7HP9+q23uWzr6vRAiLJDGAYjBhlMWNUVSYGUcgwRHGDUnS3QmQYE13J0ASlgFxiSR9uwOoRGd0dH4qMBqCuKBocEbAkR2BhC1bdyfpvre+vz/AUTCE7uR2P7duvV/ncI6H4/I+eaT71nO/VRV9ul1eX7fuANKkauBglVVWWWcAAIA+VF5VrYoaXgEI9CfvdPP6VUuK6gvuoloASFLg47XWDUDaDBw+yjoBAAD0IX7XA/3P+6Cojv9LRbgAWL9iya94GCDQvwYO40MBAAClbNCI0dYJQLo4d28xPfzvT4puASCJhwEC/ax21FjrBAAA0IcGjRhjnQCkivPF9fC/PynKBQAPAwT6V82QYSqvrLbOAAAAfaCsslo1tbz2F+gvXmp3+/LfsO7Yn6JcAPAwQKC/OQ0ePc46AgAA9IEhY8ZLctYZQGo4+aJ7+N+fFOUCQOJhgEB/qx093joBAAD0gSFjJlgnAKniwuI8/i8V8QJg/Yolv5Jz91p3AGkxdOxEuaBofyQAAICDEAShBrPkB/qP009booaifah9UX/ad97fYN0ApEVYVq7aUdwGAABAKakdM16ZsnLrDCA9vIr6GraoFwDtYcdtkrZadwBpMWzCVOsEAABQQPxuB/rVsx1hx79ZRxxIUS8ANkZRl5y+Yt0BpMXQcZMUBKF1BgAAKIAgDDV07ETrDCA9vL60MYq6rDMOpKgXAJKUy2W+Iqmo/xCBUpEpr9CQcXxQAACgFAwdN0khx/+B/rIvE5cV/YPsi34BcPPKhc9K+qZ1B5AWo6ZOt04AAAAFMJLf6UD/8fr6TSsv3mad8UaKfgEgSYqDon6QAlBKBo8ap4rqAdYZAADgEFTUDNTgkWOtM4D0cO5G64SeSMQCILti8c95JSDQP5xzGjX1COsMAABwCEZOOVzOOesMIB2cfpptqvuldUZPJGIB8IovWAcAaTHqsCMVhDwMEACAJAqCUKMPO9I6A0iPIn/1319KzAKgI2j/hnglINAvyiqrNGLSNOsMAABwEEZMOVxllVXWGUBaPFO+bdC3rCN6KjELgI1R1OXki/6pikCpGHP4myVxdBAAgGRxGnv4MdYRQGo4uS+tXXtht3VHTyVmASBJ3fmyL0vaZ90BpEH14CGqHTPeOgMAAPTC0HETVTWo1joDSIu9uTBZX1InagFw88qFz3qvW607gLSYeMxscQoAAIDkGH/ULOsEID2cWjdE9c9ZZ/RGohYAkuQybpWk2LoDSIMBQ0dwCgAAgIQYOm6SBgwdYZ0BpEWcj+N/tY7orcQtALJR3UNe7v9ZdwBpMenNx4lTAAAAFDunCUfPto4A0uTbG5qXPGgd0VuJWwBIkmKttk4A0qJmyHANGz/ZOgMAABzA8IlTVDNkmHUGkBqxtMa64WAkcgHQuqJus5z/uXUHkBaTZpygIAitMwAAwH4EYahJx77VOgNIDe/0k7am+p9ZdxyMRC4AJMnFwdXWDUBaVA4YpNGHH22dAQAA9mPc9BmqqBlgnQGkRxwk9kR6YhcAkzLt/ybpD9YdQFpMOPotKqusts4AAAB/obyqRmOnH2udAaTJ76dkdn/POuJgJfZM76ZNm/ysuafm5Nz7rFuANAiCUBVV1Xrxj49bpwAAgFdMO2Ee9/4D/cg7Lf3Xf7ns19YdByuxJwAkyWc6WyS/zboDSIvhk6Zp6LhJ1hkAAEDSkDETNGzCFOsMIEX8Nhd03GJdcSgSvQDIRtFeefcl6w4gTabMervCTJl1BgAAqRaWlWvqcSdZZwCp4rz712wU7bXuOBSJXgBIUnnG3Sip07oDSIuKmgGaeOzx1hkAAKTapBknqKKaB/8B/Wj3vlzuy9YRhyrxC4C1Ud0LktZadwBpMuZNR2nI2InWGQAApFLtmAkafdh06wwgVZzcl2698pLt1h2HKvELAElS6K+StMc6A0gPp2nHz1U5bwUAAKBflVVWadoJcyU56xQgTfZ258PrrCMKoSQWANmoYaukFusOIE3KKqs09fh3iA8gAAD0D+ec3vTWk1nAA/3vyzevXPisdUQhlMQCQJJcHFwpqcu6A0iToWMnahzvHgYAoF+MO2qWakePt84A0mZfHIdrrCMKpWQWAC0rFj8lrw3WHUDaTDz2eD6MAADQx2pHjdOEo2dZZwBptK5txaKnrSMKpWQWAJIUZDIrvZSz7gDSxDmnw098pypqBlqnAABQkipqBuhNJ75TzpXUR3cgCboV5lZbRxRSSf0UWR8tfNR5fc26A0ibTHmFjnzH6cqUlVunAABQUsJMmaafdJrKKiqtU4DU8fKt2eiSx607CqmkFgAv802S8tYVQNpUDx6iw9/+LjnHQwEBACgE5wIdMecU1dQOs04B0ijvvFZZRxRayS0Ass0Nf5B337TuANKodvR4TT3uJOsMAABKwpTZb+c5O4AVr1uzzQ1/sM4otJJbAEiSd7kmSbF1B5BGo6ZO14Sj32KdAQBAok1883EafdiR1hlAWsXe5a+yjugLoXVAX7h/853Pz5x36izJTbduAdJo8Mixyudz2v3CNusUAAASZ8zhx2jSscdbZwDp5d1trc0NX7LO6AsleQLgZZnLxSkAwMzkGSdoFN9cAADQKyOnHK4ps95mnQGkWRxn/ErriL5SkicAJGnL5h8+N2veaUdLOtq6BUgnpyFjJii3d4/at79gHQMAQNEbfdiRmnrcO3igLmDJ6+bWxvovW2f0lRI+ASDlw2C5l3LWHUBaOec09bg5GnvEsdYpAAAUtbHTj9XU4+Zw8Q/Y6vby/2Id0ZdK9gSAJN2/6fYXZ8097TA5zbRuAdLLqXb0eHlJu55/1joGAICiM/HNx2nim4+TxMU/YMnJr8s2N7RZd/Slkj4BIEmhd5+X1GXdAaTdxGNma9rxc+Vcyf/YAQCgR5xzmjp7jsYfNcs6BYC0T3HYbB3R10r6BIAk/ebu23fOOPm0sU7iUaqAsZohwzVw2Ehtf+ZJxXHeOgcAADNhpkxHnHSqRkyaZp0CQJKcvzHbXH+bdUZfS8VXcflcpklSp3UHAKl29Hgd/c73q6JmgHUKAAAmKmoG6M3v+lsNGTPBOgXAyzoyufIrrCP6Q8mfAJCk3979w/aZ804bJulE6xYAUnlltUZOPlwdO17U3vZd1jkAAPSbQSPH6Oh571XlgEHWKQBe4Z2ubmle/B/WHf0hFScAJKk8dFdI2m3dAeBlmfIKHTn3dE04+i088RgAkAJO46bP0NEnv1dllVXWMQD+bGcmCNdYR/SXVJwAkKT7Nt3eOWPeqdVObq51C4CXOec0eORYDRg6Qru2PaN8rts6CQCAgiurrNL0Oado9LQjWXoDRcbLXdHSuPgH1h39JTUnACSpoiteI+kl6w4ArzZkzATNePeHNXTcJOsUAAAKqnb0eM08/UOqHT3eOgXAX3sxF5ZfZx3Rn1JzAkCS7rvnzn0z5p0qJ3eqdQuAVwszGQ2fOFVllVXa9fxW+Ti2TgIA4KCFZeWa8pYTNWXW2xRmyq1zAOyH825ZW+PCu6w7+lOqTgBIkgs7r5f0hHUHgP1xGj3tKM1679kaOn6ydQwAAAdlyNiJmnn6hzX6sCMlceQfKFKPDdhZ/kXriP6WqhMAkrRl06bczJNPf1HSmdYtAPYvLCvT8ImHqXLgYO1+4TnFPBsAAJAA5VXVmnbCPE1883HKlPOtP1DMnPOf/MrqRfdbd/S3VK4koygKHs/X3CtptnULgAOL8zk9/eD9evqh+xXn89Y5AAD8FRcEGj3tKE08ZrbCMi78gaLn3L3ZxsVvk5y3TulvqTsBIEmbNm3yx558yh+c3HnWLQAOzAWBBo8cqxGTpqlrT4f27NppnQQAwCuchk+cqiNPOl3DJx6mIEzlR2sgcZzXuVs2z3nMusNCKk8A/Mn85au/L+nd1h0Aeq5z53Y99bv79OJTj0tK3dIWAFAkakeN06QZJ6hmyHDrFAC9851sU/0HrSOsZKwDbIUNUv5UpfQkBJBE1YOH6Ii3n6L2l57XU7/7tbY/85RYBAAA+oNzTkPGTtT4o9+iAVz4A0mUd6G71DrCUqpPAEjSectWr3dOC6w7ABycPbt3auvDD2jbIw8pzuescwAAJcgFgYZPPEzjps9Q9eAh1jkADpJ3+lJrY/2nrDsspfwEgOR9uNy5/N9JqrZuAdB7VQMHa8qsEzX+yJna9uhD2vboQ9rX0W6dBQAoARU1AzVyyuEaddh0lVfyURFIMi+1u8A3WndYS/0JAEmav3zVCindR0GAUuG9185tT2vbow9p+zNP8uYAAECvBGGooeMmaeTU6Ro8cqyc4+MyUBK8Ls821zdZZ1hL/QkASQr2+SvjCn1ccqOsWwAcGuecakePV+3o8crnctq57Wk9/8QftP3pJxXHLAMAAH8tCELVjh6nYROmaui4SbzKDyg9z+T36hrriGLASvMVC5at+qR37ovWHQD6Rq5rn3ZsfVo7tj6l7c8+pe69e6yTAACGyiqrNXTsBNWOHq/Bo8crw0U/ULKc0/ktjfUt1h3FgBMAr2j//eS1NdOfuFDSDOsWAIWXKa/Q8IlTNXziVEleHdtf0s7nn9HuF7Zp1/Pb1L230zoRANCHyiqrNWj4KA0aMVqDRo5RTe1Q8V0YkAr3TQo6Wq0jigU/9f7CectXzXFyd4s/FyB19rbvUvtLL6hz54vq3LldHTte0r6O3dZZAIBec6qoGaDqwUNVUztENbXDNGDoCFXUDLQOA9D/fBC7uetX1P3EOqRYcKH7GguWr/6Gl8627gBgL5/LaV/H7pf/6mzXvo52de/bo9y+veret0+5rr3K53LK57pf/vd3d0vyttEAUHKcwrIySVKYKVOYyShTXqmyykplyitUVlGlipoBqqgeoIqagaqoGagwwyFXAJKT2lqa6s+z7igm/HR8jTCMF+fywfsk1Vi3ALAVZjKqHjykV+98fvrhh7TrpRf6sCp9Bg0drnHTpltn9AjzLzzmn25Jmj+A4uKl9iCML7HuKDaBdUCxuSla8kd5rbbuAAAAAAAcHOfVvD5a8ox1R7FhAbAfHR3hKsk9bt0BAAAAAOi1RwburLjOOqIYsQDYj43XLtojFzdYdwAAAAAAesf7YNENN1y0z7qjGLEAeB3ZxoaNkjZZdwAAAAAAesr/V2vz4v+wrihWLAAOwCv/GS/lrDsAAAAAAAfmpVwYuoutO4oZC4ADaG1a+js5fdW6AwAAAABwYM75G9dF9f9j3VHMWAC8ge6u3GWSnrPuAAAAAAC8rq0KyiLriGLHAuAN3HrlJdudczwQEAAAAACK18JstHCHdUSxYwHQAy2Ni9sk/ci6AwAAAADwWv6ObFP9160rkoAFQI84H4fBJyXxKgkAAAAAKB77Au8/ax2RFCwAeqgtWvy/3uka6w4AAAAAwCu8rljfvOT31hlJwQKgFzp3h02Sf9S6AwAAAADSzksPK9NxlXVHkrAA6IWN1y7aI69PW3cAAAAAQNp55y7KRtFe644kYQHQS9nmhh846d+tOwAAAAAgxb7e1lj3feuIpGEBcDDi4HNearfOAAAAAIAU2hXHYZ11RBKxADgILSsWPyXvIusOAAAAAEgbJ13WtmLR09YdScQC4CBNybT/q7y2WHcAAAAAQFp4p1+1PzTpS9YdScUC4CBFUZQLXDBfUrd1CwAAAACUOi/lvA8u2Ljx7Lx1S1KxADgE65sW3y+na6w7AAAAAKDUOacr2poW/8a6I8lYAByigdsrPu+kB607AAAAAKCE/V5Bx0rriKRjAXCIbrjhon156eOSYusWAAAAAChBcRC7f8pG0V7rkKRjAVAAbU31P/NOX7HuAAAAAICS4/wN61fU/cQ6oxSwACiQcG+8RNKT1h0AAAAAUEKeqA5qlllHlAoWAAWyftWS3bFz/2zdAQAAAAClwjl34RejT7dbd5QKFgAF1NZY930v3WzdAQAAAABJ571aWhrrfmjdUUpYABSYz3VfLPlt1h0AAAAAkGBbM5mwzjqi1LAAKLC2Ky590Tl9zroDAAAAAJLKO/+ZddGil6w7Sg0LgD7Q0tjwDUn/Zt0BAAAAAEnjpNtaGxu+Zd1RilgA9JHy0F0oaat1BwAAAAAkyLP5XPenrCNKFQuAPrI2qntBThdYdwAAAABAUninT7RdcemL1h2ligVAH8o21n9XclnrDgAAAAAoel5fbW2s/0/rjFLGAqCPdYfln5P0hHUHAAAAABSxx4KueLF1RKljAdDHboku2iX5cyTF1i0AAAAAUIRiJ79g/aolu61DSh0LgH6QbWq420lfsO4AAAAAgGLjpWtamhrusu5IAxYA/cSHHUsk9zvrDgAAAAAoFk56sLM9vNy6Iy1YAPSTbBTtdWF8rqRu6xYAAAAAsOalnJc7b+O1i/ZYt6QFC4B+1BI1/NrLX2XdAQAAAADWnFdjtqnul9YdacICoJ9VbBvcKOk+6w4AAAAAMPSLyZmOK6wj0oYFQD9bu/bC7jAM/14ST7gEAAAAkDpeao/D4NwoinLWLWnDAsDAumjRw5K/2LoDAAAAAPpbIH2yLVr8v9YdacQCwEi2qWG99/5r1h0AAAAA0F+cdFtLU/3N1h1pxQLAUEV3/EnJPW7dAQAAAAB9zz/aFVZ8wroizVgAGFp71dKdXvHHvMS9L0CJCMLQOqHkuCA5v6qYf+Ex/3RL0vwBHJiXcrHcx26JLtpl3ZJm/FQ11trUcI/zarbuAFAYQcAFQKEl6aKK+Rce80+3JM0fwIE5+c+3NdX/zLoj7VgAFIHJmY4mJ/dj6w4Ah86F/FgttCDMWCf0GPMvPOafbkmaP4ADcNrc8dDkq6wzwAKgKERRFIdh/lxJL1m3ADg0fANYeGGCvgFk/oXH/NMtSfMH8Lq2x0H+nI0bz85bh4AFQNG4KVryR+/8BdYdAA5NpqzcOqHkhJky64QeY/6Fx/zTLUnzB7B/Xvrntmjpk9YdeBkLgCLS2tjwLS9/k3UHgINXUVllnVByKqqT82fK/AuP+adbkuYPYH/8l1ub6m+zrsCfsQAoMi7s/KyTfmPdAeDglFXxYbXQyiuqrRN6jPkXHvNPtyTNH8BreP22oz2zyDoDr8YCoMhko2hvEIZnS+L1GEACZTJlCjM8tKpQwkwmUX+ezL+wmH+6JW3+AF5ld6D47I3XLtpjHYJXYwFQhNZFix720iesOwAcnIqqGuuEklFZPcA6odeYf+Ew/3RL4vwBSJK8d37B+uYlv7cOwV9jAVCkWpvqb/PSF6w7APRe9aDB1gklo3rQIOuEXmP+hcP80y2J8wcgeeeva21s+JZ1B/aPBUARq9g2aJGTfmbdAaB3argAKJiaQbXWCb3G/AuH+adbEucPpJ5z93YGnUutM/D6WAAUsbVrL+zOh/m/l/SidQuAnqsaMIj3gRdAEIaqrBlondFrzL8wmH+6JXX+QMq9pKD77zZGUZd1CF4fC4Ai1xYtfdI7nSfJW7cA6BnnHMeAC6B6YK2cc9YZvcb8C4P5p1tS5w+kWBw797FsdMnj1iE4MBYACdDaWP+fclpj3QGg5wYNG2GdkHi1w5P7Z8j8Dx3zT7ckzx9IIy+/sq2x7vvWHXhjLAASYnLQcamku607APTMoKHDFIYcAz5YQZjRgCFDrTMOGvM/NMw/3ZI+fyCFNnU+NDmyjkDPsABIiCiKcnEc/oOk56xbALwx5wINGDLMOiOxBg0dJueS+yuK+R8a5p9uSZ8/kDLPKvT/sHHj2XnrEPQMP10TpG3FoqddHJwpiQdrAAkwZORo64TEqh05yjrhkDH/g8f8060U5g+kRLfk/y4bNWy1DkHPsQBImJYVi38q7+usOwC8saoBg1Q9kIeB9VbNoFpV1ST//d/M/+Aw/3QrlfkDaeC8PpttauAW5YRhAZBA2eaGGyS33roDwBsbPnaCdULiDBs73jqhYJh/7zH/dCul+QOlzEltLc31X7HuQO+xAEiqsP3Tkn5pnQHgwGoG16qKd1n3WNWAgaoZVGudUTDMv3eYf7qV2vyBEvaLATsqLrCOwMFhAZBQ2Sja6+Lgw+KhgEDRGzlxsiTeZ/3GnEZOmGwdUXDMv6eYf7qV5vyB0uO3ZcL4IzfccNE+6xIcHBYACdayYvFTXv5D4qGAQFGrHjhYg4cNt84oeoOHjyjJe6aZf88w/3Qr1fkDJabbx8HZN0VL/mgdgoPHAiDhWpsa7pF3DdYdAA5s5MQpCjMZ64yiFYSZkv72j/kfGPNPt1KfP1A63MWtK+o2W1fg0ITWATh0Wzbf/ouZ806fKGmWdQuA/QvCUEEYqn3HduuUojRq0pSSvveX+R8Y80+3Up8/UBK8NmSb6y+1zsCh4wRAqeChgEDRGzJytAYOGWadUXQGDBmainemM//9Y/7plpb5A0nmpN90dIQXWnegMFgAlIhsFO2Nw/xHxEMBgSLmNGbKm1RWUWkdUjTKKio0dsrhSsdD0pj/azH/dEvX/IHE2qo4+MDGaxftsQ5BYbAAKCFt0dIngzh+nyT+AQWKVJjJaNy0w+UcH3idCzR+2pGpujea+f8Z80+3NM4fSKC9ioMzW1Ysfso6BIXDMwBKzG/uvvOZGfNO+4OTPiJW6kBRKiuvUHllldq3v2idYsZJGjftCNUMTt99v8yf+TP/9M4fSBDvnVvQ2lz3fesQFBYLgBJ0/+Y7fjfr5NPKJM21bgGwfxXVNQrLylL7ULBRE6eqdsQo6wwzzJ/5M//0zh9IBKfG1sb6G6wzUHgsAErUlrtu//HMeT89QtIx1i0A9q+qZqAUe3W277JO6VfDxk7Q8LETrDPMMf90Y/4AipWXvtnaVPcZ6V+sU9AHeAZAyXK+oz08X87da10C4PWNmDApVe+/HjZmvEaOn2SdUTSYf7oxfwBF6L6KsOM8yXnrEPQNTgCUsAd+/sPcMXPe859BEJ8tabB1D4D9qx44SOUVlWrf8ZJ1Sh9yGj1lmoaPGW8dUnSYf7oxfwBF5Jk4Dt+1vumSUv6BlHosAErcb+/+Yfux8969ycl/TFK5dQ+A/ausrlFFdbXad26X96W1dA+CUOOmHaHBw0ZapxQt5p9uzB9AEegM4vj07Ir631uHoG+xAEiB+zffvnXm3NMfktNZ4s0AQNGqqKrWwKHDtWf3LuW6u61zCqKiqloTpx+j6oEcQnojzD/dmD8AQ7FzOrulueHH1iHoeywAUmLL5tsfnDnv1Jzk3mXdAuD1ZTJlqh0+Svl8Xns7dlvnHJLBw0dq/OFHqaycw0c9xfzTjfkDMOG1JNtUv946A/2Db4NT5rxlq9c7pwXWHQDe2O4d2/Xck4+oa+9e65ReKauo1OjJh2nA4CHWKYnG/NON+QPoF15fzTbXX2Cdgf7DCYCUOXzUJ75XMXzHTMkdYd0C4MAqKqs0ZORoOee0p2O3VOT3BjvnNGzMeI2fNl0VVdXWOYnH/NON+QPoB/9vcqbjnE2bNsXWIeg/nABIoQuiqLorX/MjSW+1bgHQM1179+rFZ5/SzheeK7qHhDnnNHjEKA0fM0FlFRXWOSWJ+acb8wfQB+6rDqtP/mL06XbrEPQvFgApteCSlSPiTNlPnTTNugVAz+W6u/TS1me0fdszij248PsAABtvSURBVGPbhb1zgQaPGKnhYyeorJwP/v2B+acb8wdQII9l8mUn3rTy4m3WIeh/LABS7OPRNdPy+fxPJY2wbgHQO/l8Xu3bX9TOF55Tx66dkvrvW8HKmgEaPHyEBg0bqUymrN/+d/FnzD/dmD+AQ/Bi4OM565uX8Lq/lGIBkHILlq9+q5d+JIkb9oCE6tq7V7u3v6COXTu0Z/eugn8zGAShqgcOUvWgWg0aOkxlFZUF/e/HoWH+6cb8AfTCHi9/amtTwz3WIbDDAgA6b9nVf+tc/G/ioZBA4nnvtad9tzrbd6przx7t29Op7n17lc/levSfD8KMKqqqVF5ZpfKqKlUPHKyqmoFyjl8XScD80435AziAWN6dlW2u+zfrENjiJzokSQuWrfqkd+6L1h0A+ka+u1v5fE5xPq98Picf5yVJLggVhhkFYagwU6YwkzEuRV9g/unG/AHIu4uzzXX/ap0BeywA8H/Ou3zVNc67hdYdAAAAAArEaXW2sb7BOgPFIbAOQPGYEnTWOek26w4AAAAABfH1yUHHUusIFA9OAOBVzoqi8gH5mm976T3WLQAAAAAOjpfuHLSj4v033HDRPusWFA9OAOBVNkZRV1nY8RHv9BPrFgAAAAAHwfmf14TVZ3Lxj9fiBAD264IlVw7uKgs3yWmmdQsAAACAnvL/HYaZk9dFi16yLkHxYQGA13VOtHpkmNfdkg63bgEAAADwhh7J5TPvuHnlwmetQ1CcuAUAr2tDVP9cEGbeI4kfIAAAAEBxeybvdSoX/zgQFgA4oPXRwkfDUKdJ4ggRAAAAUJx2BAreu6G5/jHrEBQ3FgB4Q+ui+v9x0nu91G7dAgAAAOBVOr38+9c3Lb7fOgTFjwUAeqSlqf4XcsEHJfEkUQAAAKA4dMn7D7c2NdxjHYJkYAGAHmttXPxfcv4cSXnrFgAAACDl8t75j2abG35gHYLkCK0DkCxb7rrjgVknn/6EpL8Vb5EAAAAALHgnd2G2qf4W6xAkCwsA9NqWu26/f+a8U/8ouTPEEgAAAADoT15yn8o21a21DkHysADAQdmy+Y7fzJp3+jOSWAIAAAAA/cNL7jPZprovWYcgmVgA4KBt2Xz7r2fOPX2HnN5t3QIAAACUOi+/tLWp/jrrDiQXCwAcki2bb//FzHmn7ZZ0unULAAAAUKqc16XZ5oarrDuQbCwAcMi2bL7jZzPmne6d9DfWLQAAAECpcXLLW5rrV1p3IPlYAKAg7t98+10z5p2acXJzrVsAAACAkuHUlG2q/xfrDJQGFgAomPs33/HjGSefVuGkd1i3AAAAAEnnnb+2tbFhqXUHSgcLABTU/Xfd8V+z5p1eLWmOdQsAAACQVE66PtvUsNC6A6WF17ehD3g3//LV18q7z1mXAAAAAAl0XbapbpHkvHUISktgHYBS5Hy2seFiL99sXQIAAAAkiZfWZJvqF3Lxj77ALQDoM/dvvuPHM08+zUk62boFAAAAKHpOV7U21S+xzkDpYgGAPrXlrjs2zZx72l45nWLdAgAAABQtryjbVL/cOgOljQUA+tyWzXfcM3PuaZ1yOtW6BQAAACg2Tm55trm+yboDpY8FAPrFls13/HTW3FOfk3PvFQ+fBAAAACTJS1qUbapfZR2CdGABgH6zZfMdv5o197StcmIJAAAAgLTz8v5z2eaG661DkB4sANCvtmy+475Z805/RtL7xRIAAAAA6eQl95lsc/2N1iFIFxYA6HdbNt/+65nzTn1ScmeIV1ECAAAgXfJybn62qW6ddQjSh29gYWb+sjUflPNfk1Rp3QIAAAD0gy45/7FsY8NG6xCkEwsAmFqwbPU7vdO3JQ20bgEAAAD6UIdz7sMtjXU/tA5BerEAgLn5y9ccL/nvSxpm3QIAAAD0ge0uDt7fsmLxT61DkG4sAFAUFkRrjvJ5f7ukcdYtAAAAQAFtjUOd3hbV/9Y6BOABbCgKLVHdAwpzJ3npYesWAAAAoEAeC8PwHVz8o1hwAgBFZX60arTy7geSZli3AAAAAIfggTgOT2tbsehp6xDgTzgBgKKSjRq2dnXn/kZO3B8FAACAZHLu3jjXPZeLfxQbFgAoOrdeecn2fKdOk/QD6xYAAACgl34U7M2f0nbFpS9ahwCvxQIARWnDmvqOjrDjA066zboFAAAA6KGvd4Qd71m/aslu6xBgf3gGAIqcd/MvX/N5eX3eugQAAAB4PU66flLYsTCKoti6BXg9LACQCPOXrfmcnL9GnFoBAABAcfHyWpJtrl9tHQK8ERYASIxzL199ZuB1i6Qq6xYAAABA0j4vndvaVM9tq0gEFgBIlPmXXf02H8TfddJw6xYAAACk2kuS/2C2qeFu6xCgp1gAIHE+Hl0zLZfPf99J06xbAAAAkEqPKXTvzUZ1D1mHAL3BAgCJND9aNVp59z1Js61bAAAAkCq/zOTLzrhp5cXbrEOA3uKBakikbNSwNb9H8yT9p3ULAAAAUuP2YF/8Li7+kVQsAJBYG9bUd5RvG3Sm92qxbgEAAECJ8/rq5LDjfetXLdltnQIcLG4BQEngNYEAAADoI15OjdnG+sg6BDhULABQMuYvW/MhOd8mqca6BQAAACWhQ959LNtc923rEKAQWACgpJy//OoZseL/kDTRugUAAACJ9rSX+0BrU9191iFAobAAQMn52KXXjsmEue9IOt66BQAAAMnjpN+EYfy3N0VL/mjdAhQS90uj5Ny8cuGzCjvmSrrVugUAAABJ4zaWhR0ncfGPUsQJAJQw7+Zfvubz8rpc/H8dAAAAB+bltGpy0HFpFEWxdQzQF7goQsk7b/nqs52UlVRl3QIAAICitM9J/9TSVH+zdQjQl1gAIBXmX3b12xTkvy25UdYtAAAAKB5eesHJfyjb1HC3dQvQ13gGAFIhu2Lxz+MwPkEST3EFAADAn/wyiIO3cPGPtAitA4D+cv+mO3e+Y8YZrV2V8VhJs6x7AAAAYMdLN3e2hx++ZdXiF61bgP7CLQBIpfOWr7nAyX9BUpl1CwAAAPqPl3LOa1m2uf4q6xagv7EAQGqdf9mak+LAb5Q02roFAAAA/eL52MV/19a45MfWIYAFFgBItXMvu2ZcEOS/Jemt1i0AAADoQ16/jjP5M9uipU9apwBWeAggUq1txaKnB+6omCevddYtAAAA6CNeGzo6wpO4+EfacQIAeMUrzwW4QVK5dQsAAAAOHff7A6/GAgD4C/OXr3qHpI2SG2XdAgAAgEPyrIuDj7SsWPxT6xCgWLAAAF7jnGj1yCCvW5x0inULAAAADspduXzmH25eufBZ6xCgmITWAUCx+e2mOzoOH/WJW8tH7PSS5opFGQAAQFJ4J91Qvm3QOS3XfWandQxQbLiwAQ7gvMtXv895tUkaat0CAACAA3oxdu6ctsa671uHAMWKBQDwBhZcdvUEBfE3vHSidQsAAAD+mnf6VRzr7A3N9Y9ZtwDFjNcAAm+gZcXipyaFHXPlxNNjAQAAioyTX9sZdMzh4h94Y5wAAHph/rI1H5TzLZJqrVsAAABSbpeXPtHaVH+bdQiQFCwAgF6av2zVm+TcRkkzrFsAAADSyEm/CcLw7HXRooetW4Ak4S0AQC9t2XzHS2+a/Z7W8jI/Uk6zrXsAAADSxX9ZYefZLdElz1mXAEnDCQDgEJx7+eozA6+bxFsCAAAA+tpO5/yFLY0N37AOAZKKBQBwiBZcdvUEH8Y3y2uudQsAAECJ2pQJ43Nuipb80ToESDJuAQAO0Za7b9/1wb+Z07Yjrtgup3eJf64AAAAKwks559TU8dCkf7r5ixfutO4Bko4TAEABnXvZVScEQXCrpMOsWwAAABLuCS//j61NDfdYhwClIrAOAEpJ24ol93aHFW+R97dYtwAAACSX26gwM5OLf6CwOAEA9JHzlq86V3I3OmmAdQsAAEBC7PZyda1NdWutQ4BSxAIA6EPzl616kw/crc7rOOsWAACAIvcL7/0/tjY3PGIdApQqbgEA+lC2ueEPU4KOE+W1VFKXdQ8AAECx8VJOTld1hB1zufgH+hYnAIB+Mn/5muMl3yZpunULAABAkXggiOPz1q9Y8ivrECANeF0Z0E+2bL79mZnvnLNOKi+T9HaxgAMAAOnlnfxXy8POD9/UtOwJ6xggLbgAAQyct3zVHMllnTTNugUAAKCfPRG7eEFb45IfW4cAacMzAAADrU0N9+TCitlOnifcAgCA9PDaEOyL38zFP2CDEwCAsfnLVr1bzq2TNNa6BQAAoG/4bc65C1sa679jXQKkGScAAGPZ5oYfKMwcLe9vsW4BAAAoNC99szwMjuHiH7DHCQCgiMy/fPUZ8vqyOA0AAAASz2/zUkNrU0ObdQmAl3ECACgi2cb67yrMHM2zAQAAQLK5jeVhcAwX/0Bx4QQAUKReeTbAlyVNsm4BAADoGfe4c/rnlsa6H1qXAPhroXUAgP3bsvmOh09455y1eZVnJL1dLOwAAEDx8k7+q8G++MyWlQ0PWMcA2D8uKIAEWHDZ1W9XEN/kpSOtWwAAAP6Slx52Xp/INtdvsm4BcGCcAAASYMvdtz81851z1knleb18GoB/dgEAgCkv5ZzT6kE7Ks5eu2bRI9Y9AN4YJwCAhDl3+dWzQsXrvDTLugUAAKSTd/qVD/Txtqj+t9YtAHqOtwAACdPWtPg3k8KO47zchZJ2WfcAAIBU2SnvLu58cNLbuPgHkocTAECCfezSa8dkgtxVcjrHugUAAJQ2L/e9IHafalmx+CnrFgAHhwUAUALOvfyqvwl88EVJ061bAABAyXlE3n8m29zwA+sQAIeGB4kBJeD+u+58/E2z37O+vMLnJJ0oKWPdBAAAEq9bTmsUdpydbbzsIesYAIeOEwBAifl4dM20fD5/o6TTrFsAAEBibcr7+FMbmpc8aB0CoHBYAAAlav7lq8/wXl900njrFgAAkBhbvfyS1qaGNusQAIXHLQBAidpy1x3/O+ud723xPh4g6S2Ot34AAIDX1y3nv1DeFX9k/col91rHAOgbnAAAUuD8ZVcd4V1wrZfeY90CAACKzo/CUJ9bF9X/j3UIgL7FAgBIkfmXrz5D3l8nuanWLQAAwNwjcv6SbGPDRusQAP2DWwCAFNly1x3/+6Z3zvlyeVzxopzmSKqwbgIAAP2uQ05XKOz4aPZfLvutdQyA/sMJACClzo+uGhvngivl9DHxswAAgDTwkvtmHObq2qKlT1rHAOh/fOgHUm7+8jXHy8XXy7u3WbcAAIA+c5+X/1xrU8M91iEA7PBUcCDlsk11v5wcdM5xcp+QtNW6BwAAFNQzzun8yWHHCVz8A+AEAID/c07d6pqwUp+R06WSBln3AACAg9Yhpy8Ee+MV61ct2W0dA6A4sAAA8FcuiNYM78775bH0KSdlrHsAAECPxfK6RRnfkI0aONkH4FVYAAB4XfOjNdOVV6Pkz7JuAQAAB+alO53CRdmmRf9t3QKgOLEAAPCGzl2++sTAaY283m7dAgAAXs07/crFqs8212+ybgFQ3FgAAOgh7+Zfvvoj8rpSclOtawAAgJ70ciumhO03RVEUW8cAKH4sAAD0ymc/e33FrsFdn3HOXyJpmHUPAABp46UXAu9Wtmfab9wYRV3WPQCSgwUAgIPyqejGAZ25zk/LaamkWuseAABKnZfandON5fvyV6y9aulO6x4AycMCAMAh+Xh0zdB8nL9IXoskDbTuAQCgBHU66aZcqBUbovrnrGMAJBcLAAAFseCSlSN8WdlieX1OUqV1DwAAJaDLyWe782XRzSsXPmsdAyD5WAAAKKgFl109QUF+WSx3vpMy1j0AACRQt7y+HmQy0fpo4aPWMQBKBwsAAH1ifnTFZJcPL/FyH5cUWvcAAJAAseS+JR9flm1u+IN1DIDSwwIAQJ/6eLT6mFxen3fShyQF1j0AABShWN5tdBk1tkR1D1jHAChdLAAA9IsF0ZqjfM4v9U7/wK0BAABIeuUb/7zPf35D85IHrWMAlD4WAAD61TnLVk/JOF3spQslVVj3AABgoFteX48zQXNbtPh/rWMApAcLAAAmPn7Zmklx4Bd56QLx1gAAQDp0yesbYSZsXBctetg6BkD6sAAAYOqfLr1uVC7TvVBen5VUbd0DAEAf2OfkW8PQN90ULfmjdQyA9GIBAKAozI9WjfZ5t1jSPztpgHUPAACHykvtgdwXc6G/ekNU/5x1DwCwAABQVP4xun5QWa5rgZyvlzTOugcAgIPwnJy+FAbh9euiRS9ZxwDAn7AAAFCUzoqi8up89d8Hcku9dKR1DwAAPfCIvLuhoyNYu/HaRXusYwDgtVgAAChqURQFj8c175PXEklzrHsAANiP+7z89Z0PTb5l48az89YxAPB6WAAASIzzlq+Z7bz/nJw+Kim07gEApFrs5f6fFF/Z2tRwj3UMAPQECwAAiXPeslWHBc5d5KVPSKqy7gEApEqXvL6RV3zFhuYlD1rHAEBvsAAAkFj/dOl1o3JB9z/L6UJJY6x7AAAl7Rkn96Vc6NfyRH8AScUCAEDinRVF5TVx9Qe8dxc46RTrHgBASbnPy19fsW3w19auvbDbOgYADgULAAAl5bzla2YHii/wcueI2wMAAAenS3LfcbG7rmXF4p9axwBAobAAAFCSzolWjwxzWiCnT0uaYN0DAEgCv03OZeN8eEPbikVPW9cAQKGxAABQ0rg9AADQA/d5ubUubG/LRtFe6xgA6CssAACkxnnLrzzaufAceV0gaYh1DwDA1G4n/zWF+kpL1PBr6xgA6A8sAACkzvwoqlRcfQanAgAgle7zcmtrwqpbvxh9ut06BgD6EwsAAKm2IFpzlI/9uZwKAICStsvJf51v+wGkHQsAABCnAgCgRPFtPwD8BRYAAPAa5y6/epZz8Sec1z9IqrXuAQD0ynZJXwsUrF3ftPh+6xgAKCYsAADgdXz2s9dX7B6y7zR5d47kPyipzLoJALBfsZd+JPkNFWHnN9dGUad1EAAUIxYAANADH7v02jGZIH+2c/48L82y7gEASJIekFebMr41GzVstY4BgGLHAgAAeukvXie4QNJI6x4ASJntTn6ji4MN61fU/cQ6BgCShAUAAByks866LRx4xBN/Ezt3geQ/IKncugkASlTeSz92zq/tCDq/szGKuqyDACCJWAAAQAF8dOkVQ8rKwjOk4CzJv9tJGesmAEi4WNLP5N3GfMZ/bUNU/5x1EAAkHQsAACiwC6I1w/fl9SEnf66kt4uftQDQGw/Iqy3IxBvWR0uesY4BgFLCh1IA6EMLLrt6gnf+Q3L+LElzrHsAoEg9IKeNYRDevC5a9LB1DACUKhYAANBPzlm2ekoonS2n+ZKmW/cAgLHH5HSbApfNRnUPWccAQBqwAAAAA+cvv3pG7OIzFetMOR1r3QMA/cJri3fu352Cf882Lfpv6xwASBsWAABgbH50xWTlyj7gnX+/pJN5gCCAEhJL+o2cvhfE8dfWNy/5vXUQAKQZCwAAKCIvP0Awfq8UnOXkTxOvFgSQPHlJP5d3G4NMfiMP8gOA4sECAACK1Pzo2lqXz73fSx+U9G5JNdZNALA/XmqX9AM59+2Kfbnvrb1q6U7rJgDAX2MBAAAJEEVR5snuAW+LQ/9+eZ0iabZ1E4C084866U7v3PcGbq+4/YYbLtpnXQQAODAWAACQQOdH107N5/OnSDrDyZ8iqdK6CUDJ2+ulnzivO13GfbclqnvAOggA0DssAAAg4c5aeE3VwJr8HO90xiu3C0y0bgJQKvw2eXe7Av/d7qDyh7dEF+2yLgIAHDwWAABQYuYvv+bNTrnTvdwpkt4hqdq6CUBidDhpc+zdf2Uy/ofrovr/sQ4CABQOCwAAKGFRFGUeyw+Y4bw/xTud4qS54s0CAP4sL2mLnO4MYt1Zs7Pibu7lB4DSxQIAAFLknLrVNWWVOjEOdMorDxN8i/hdAKTMnx7epzu7uvJ33nrlJdutiwAA/YMPfQCQYudHV43N590pzrt3yukkSYdZNwEoLC897OR+Iqcf5XLhnTevXPisdRMAwAYLAADA/5kfrRqt2B0vac4rJwRmSQqMswD0XF7S7538T2Lpnkwc3LVuRd0T1lEAgOLAAgAA8Lo+Fd04YG+u821xoJO81xwnnSReOQgUDS/lnHS/k+7xzv8kDDL/tS5a9JJ1FwCgOLEAAAD02PwoqvTdA05wQXySk97q5U6QNNq6C0iRZyXd67x+4Z3/icLOX2ajaK91FAAgGVgAAAAOyfnRVWPjOJgtabb3braTP0lSrXUXUAI6JG1x0n2x/H1SfF9r09LfWUcBAJKLBQAAoKDOOuu2sHr6o9OlYHYgN9tLsyUdL14/CBxIXtLv5XWf5O4LvO7bXdZ+78Yo6rIOAwCUDhYAAIA+96noxgF7uvceK5efIaeZ3gUz5f0xkqqt2wADnXLuf5yPt8hrS965LX6PfrthTX2HdRgAoLSxAAAAmDjrrNvCgUc/PSmOc0frz7cPzJY0xroNKKDtkh74y2P8nQ9NfWjjxrPz1mEAgPRhAQAAKCrzo1WjldNMyb1Zzk2X/NGSpksabN0GHMAOOf+QYvc75/xDcsF/h7nMlptWXrzNOgwAgD9hAQAASISPLr1iSGVYdnQ+0FGB/NGxdJSTnyq5qdZtSJXtkh6V1wOSfqdADwRB5nfro4sfk5y3jgMA4EBYAAAAEu3cS1YOCzKZo14+LaDDvNdhgXSYlw6TNMi6D4m0U16PeKdHndMjkh4J8u7BXNz1YNsVl75oHQcAwMFiAQAAKFkfXXrFkLKysqnOxVMVu6nO+amx3NRXTg5MlhTYFsLQy9/kyz0q5x/13j0aev+oMplH+TYfAFCqWAAAAFLprIXXVFXWdE8Og3C8kx/vY030zo93cuMlN0HyE8QJgqTaJbmnnPyTsfzTUvCUU/ykXPB0Ps7/cW9H2eMbr120xzoSAID+xgIAAIDX8Y/R9YMy+c4JzgcTnAvGe+fHy2uEpNHeaaTzGi5ptKRa49S02C5pm6TnX/lrq5ye99JTLvZPu0zwpOvMP7V+1ZLdtpkAABQnFgAAAByis6KovKp70AgFfqScH+18PEI+GPHyv9YQOdVKvlZytZIfIrnBenlpEFq3G8lL2vHnv/wOye2Q1w7vtN1Jz3r5F7wLng+C+Nm4O/P8nrJdz2+Moi7jbgAAEo0FAAAARs5vuGqgL8vU+sDVBnE82Lu4Vs7VxnLVgVeNly+X84OcgowU13oFGUkDJV/ppSrn/AB5V+alwU7+Nc8zcLX669/zNZLKX/P3uiR1vObv+Zcvyv/yb7jYSTud1BVLHU7aI7m9knY7xTkp2OEV5+TdLjnt83KdgXynvN/hfLDDlfkdcXew03XndvANPQAANv4/lvocDmsNYikAAAAASUVORK5CYII=;fontFamily=Cascadia Code;fontSize=9;" vertex="1" parent="1">
          <mxGeometry x="8.84" y="9.74" width="140.26" height="140.26" as="geometry" />
        </mxCell>
        <mxCell id="cGruJ02C7jI4yUieoDy_-58" value="&lt;h1 style=&quot;margin-top: 0px;&quot;&gt;Dalaran Sewers* Exhibit Concept&lt;/h1&gt;&lt;p&gt;by Libre Embedded&lt;/p&gt;" style="text;html=1;whiteSpace=wrap;overflow=hidden;rounded=0;fontFamily=Cascadia Code;" vertex="1" parent="1">
          <mxGeometry x="170" y="9.74" width="445" height="120" as="geometry" />
        </mxCell>
        <mxCell id="cGruJ02C7jI4yUieoDy_-59" value="No World of Warcraft Experience&lt;div&gt;Required to Play!&lt;/div&gt;" style="text;html=1;align=left;verticalAlign=middle;whiteSpace=wrap;rounded=0;fontFamily=Cascadia Code;fontStyle=2" vertex="1" parent="1">
          <mxGeometry x="338.84000000000003" y="54.74000000000004" width="380" height="30" as="geometry" />
        </mxCell>
        <mxCell id="cGruJ02C7jI4yUieoDy_-61" value="*Exhibit could be stylized in&lt;div&gt;many alternative ways.&lt;/div&gt;" style="text;html=1;align=left;verticalAlign=middle;resizable=0;points=[];autosize=1;strokeColor=none;fillColor=none;fontFamily=Cascadia Code;fontSize=9;" vertex="1" parent="1">
          <mxGeometry x="38.84" y="160" width="180" height="40" as="geometry" />
        </mxCell>
      </root>
    </mxGraphModel>
  </diagram>
</mxfile>
